<?xml version="1.0" encoding="UTF-8" standalone="no"?>
<!DOCTYPE svg PUBLIC "-//W3C//DTD SVG 20010904//EN"
              "http://www.w3.org/TR/2001/REC-SVG-20010904/DTD/svg10.dtd">

<svg xmlns="http://www.w3.org/2000/svg"
     width="285.714mm" height="285.714mm"
     viewBox="0 0 1080 1080">
  <path id="Selection"
        fill="none" stroke="black" stroke-width="1"
        d="M 435.00,64.00
           C 447.12,60.29 475.36,56.50 487.00,61.68
             506.79,70.49 512.73,105.39 500.07,121.96
             491.07,133.75 474.60,135.14 461.00,137.19
             457.97,137.42 449.06,139.81 447.02,137.19
             446.02,136.21 445.66,132.59 445.42,131.00
             445.42,131.00 443.27,117.00 443.27,117.00
             443.27,117.00 435.00,64.00 435.00,64.00 Z
           M 459.00,125.00
           C 467.56,123.87 479.41,122.93 485.89,116.79
             496.13,107.09 492.04,80.24 480.00,73.56
             471.07,68.60 461.33,72.24 452.00,73.00
             452.00,73.00 459.00,125.00 459.00,125.00 Z
           M 570.00,119.00
           C 566.75,122.95 564.72,125.78 560.00,128.16
             547.37,134.55 528.58,130.58 521.36,118.00
             518.26,112.58 518.01,108.02 518.00,102.00
             517.99,93.71 518.62,86.64 524.33,80.04
             533.53,69.40 554.96,67.62 564.79,78.10
             569.00,82.59 570.74,89.98 570.96,96.00
             571.04,98.10 571.22,101.54 569.40,102.98
             567.81,104.23 563.99,104.00 562.00,104.00
             562.00,104.00 532.00,104.00 532.00,104.00
             533.43,119.71 549.61,124.39 559.00,112.00
             564.12,113.25 566.61,114.99 570.00,119.00 Z
           M 580.00,73.00
           C 580.00,73.00 594.00,75.00 594.00,75.00
             594.00,75.00 602.00,119.00 602.00,119.00
             602.00,119.00 611.78,103.00 611.78,103.00
             611.78,103.00 624.00,80.00 624.00,80.00
             624.00,80.00 638.00,82.00 638.00,82.00
             638.00,82.00 629.31,99.00 629.31,99.00
             629.31,99.00 609.00,136.00 609.00,136.00
             605.55,135.54 594.91,134.62 592.73,132.41
             590.70,130.33 588.87,119.34 588.20,116.00
             588.20,116.00 580.00,73.00 580.00,73.00 Z
           M 557.00,95.00
           C 556.60,78.86 542.33,80.49 537.21,84.65
             534.03,87.24 532.90,91.18 532.00,95.00
             532.00,95.00 557.00,95.00 557.00,95.00 Z
           M 721.00,84.00
           C 721.00,84.00 734.00,89.00 734.00,89.00
             734.00,89.00 713.92,138.00 713.92,138.00
             710.66,145.48 705.49,152.10 713.92,157.00
             713.92,157.00 711.00,168.00 711.00,168.00
             704.42,166.08 697.02,164.49 694.65,157.00
             692.41,149.89 697.31,140.54 700.01,134.00
             700.01,134.00 721.00,84.00 721.00,84.00 Z
           M 685.00,143.00
           C 681.90,145.77 679.10,148.18 675.00,149.36
             664.01,152.54 647.14,146.93 641.22,137.00
             635.51,127.43 637.73,110.99 643.76,102.01
             656.94,82.39 683.35,89.72 690.91,103.00
             695.28,110.66 692.31,122.45 689.00,130.00
             689.00,130.00 652.19,119.00 652.19,119.00
             651.91,121.84 651.52,125.33 652.19,128.04
             654.30,134.15 661.67,138.72 668.00,138.17
             671.34,137.88 675.03,135.56 678.00,134.00
             678.00,134.00 685.00,143.00 685.00,143.00 Z
           M 411.00,136.00
           C 410.57,140.78 409.46,145.09 406.44,148.96
             399.12,158.39 381.86,162.60 371.00,157.65
             360.20,152.73 354.14,139.40 353.60,128.00
             352.40,103.10 380.42,96.05 392.00,101.57
             400.32,105.54 404.66,115.35 406.00,124.00
             406.00,124.00 371.00,137.00 371.00,137.00
             372.23,139.50 373.29,141.68 375.33,143.66
             381.26,149.43 390.43,147.60 395.61,141.81
             397.61,139.58 398.73,136.68 400.00,134.00
             400.00,134.00 411.00,136.00 411.00,136.00 Z
           M 679.13,118.00
           C 679.78,114.79 680.52,111.23 679.13,108.02
             676.43,100.80 662.00,95.68 655.00,111.00
             655.00,111.00 679.13,118.00 679.13,118.00 Z
           M 391.00,120.00
           C 389.87,117.52 388.93,115.27 386.79,113.43
             381.41,108.80 372.44,111.36 368.85,117.04
             366.65,120.53 367.00,125.03 367.00,129.00
             367.00,129.00 391.00,120.00 391.00,120.00 Z
           M 324.00,135.00
           C 324.16,128.14 325.31,123.06 332.00,119.69
             333.76,118.80 336.48,117.80 338.30,119.03
             340.66,120.63 341.62,127.28 342.00,130.00
             339.21,130.99 336.53,131.90 334.19,133.80
             328.99,138.00 329.03,143.17 331.09,149.00
             331.09,149.00 346.00,178.00 346.00,178.00
             343.50,179.44 336.92,183.82 334.21,183.18
             331.13,182.45 327.72,173.85 326.14,171.00
             326.14,171.00 312.75,146.00 312.75,146.00
             310.37,141.27 308.07,138.26 307.00,133.00
             307.00,133.00 319.00,128.00 319.00,128.00
             319.00,128.00 324.00,135.00 324.00,135.00 Z
           M 747.00,127.53
           C 760.32,125.35 775.25,132.06 780.52,145.00
             786.45,159.57 775.38,182.81 760.00,186.47
             744.14,190.25 725.68,179.61 723.30,163.00
             721.18,148.17 733.00,131.67 747.00,127.53 Z
           M 754.00,139.42
           C 744.94,141.35 738.19,150.98 737.19,160.00
             736.24,168.54 743.50,175.86 752.00,174.77
             767.57,172.78 778.28,139.81 754.00,139.42 Z
           M 267.00,181.00
           C 264.60,180.45 259.47,179.36 258.01,177.30
             256.14,174.68 258.56,169.44 259.90,167.00
             263.91,159.73 272.59,151.80 281.00,150.33
             295.01,147.87 300.23,159.18 307.02,169.00
             314.96,180.46 315.08,181.24 322.00,178.00
             322.00,178.00 328.00,186.00 328.00,186.00
             318.95,194.83 317.67,195.04 306.00,192.00
             308.98,210.47 282.48,221.05 272.92,203.00
             267.90,193.53 273.64,185.78 280.03,179.00
             282.46,176.42 287.58,171.81 287.41,168.00
             287.17,162.66 281.94,162.01 278.00,164.35
             271.28,168.34 269.11,173.96 267.00,181.00 Z
           M 756.00,220.00
           C 758.34,214.02 764.49,207.15 768.60,202.00
             768.60,202.00 791.35,173.00 791.35,173.00
             793.76,169.89 801.96,158.24 805.04,157.30
             808.39,156.27 813.37,161.07 816.00,163.00
             816.00,163.00 812.00,171.00 812.00,171.00
             812.00,171.00 818.00,170.09 818.00,170.09
             832.30,169.22 841.47,181.36 839.82,195.00
             839.12,200.74 836.53,205.35 833.28,210.00
             823.44,224.08 806.29,233.27 792.04,218.96
             787.43,214.33 786.53,211.32 786.00,205.00
             780.51,209.28 771.32,221.92 767.00,228.00
             767.00,228.00 756.00,220.00 756.00,220.00 Z
           M 295.00,175.00
           C 295.00,175.00 288.84,182.00 288.84,182.00
             286.80,184.41 284.31,186.78 283.66,190.00
             282.59,195.39 287.57,201.04 294.00,198.82
             299.43,196.94 301.36,192.41 300.89,187.00
             300.47,182.02 297.76,178.94 295.00,175.00 Z
           M 241.00,177.00
           C 246.59,181.89 258.77,204.28 263.40,212.00
             264.95,214.58 270.80,223.60 270.99,225.96
             271.26,229.34 264.08,235.57 261.00,236.01
             258.07,236.43 252.60,232.54 250.00,231.01
             250.00,231.01 225.00,217.00 225.00,217.00
             225.00,217.00 238.58,242.00 238.58,242.00
             239.82,244.20 243.80,250.79 243.71,253.00
             243.53,257.12 236.24,263.89 232.00,262.58
             232.00,262.58 216.00,252.69 216.00,252.69
             216.00,252.69 185.00,233.00 185.00,233.00
             187.28,228.19 189.73,226.06 194.00,223.00
             199.95,227.59 221.87,242.66 228.00,245.00
             228.00,245.00 214.74,220.00 214.74,220.00
             213.74,218.06 210.50,212.63 210.14,211.00
             209.30,207.20 213.48,202.41 217.00,201.41
             220.17,200.51 225.25,204.15 228.00,205.72
             228.00,205.72 254.00,220.00 254.00,220.00
             254.00,220.00 239.31,196.00 239.31,196.00
             237.63,193.39 233.54,188.12 233.99,185.00
             234.45,181.84 238.66,178.93 241.00,177.00 Z
           M 809.00,178.26
           C 801.59,181.02 793.84,189.92 793.22,198.00
             792.53,207.08 801.26,214.08 810.00,211.35
             820.04,208.22 830.88,191.70 822.44,182.33
             820.18,179.81 817.36,178.42 814.00,178.26
             812.11,177.93 810.83,178.15 809.00,178.26 Z
           M 862.00,201.00
           C 864.91,203.09 871.11,207.61 869.77,211.83
             869.39,213.03 866.90,215.84 866.00,217.00
             870.09,217.00 874.20,216.76 878.00,218.57
             887.56,223.13 891.38,233.55 887.00,243.06
             887.00,243.06 894.00,243.06 894.00,243.06
             905.98,243.86 916.26,257.56 910.55,269.00
             908.08,273.93 901.22,279.49 897.00,283.13
             891.00,288.30 880.35,298.59 874.00,302.00
             872.32,299.78 867.19,294.45 867.20,292.00
             867.20,289.42 870.25,287.13 872.00,285.58
             872.00,285.58 887.00,272.42 887.00,272.42
             892.02,268.09 900.66,262.30 895.35,255.09
             890.52,248.54 884.05,249.32 878.00,253.52
             878.00,253.52 860.00,268.85 860.00,268.85
             858.18,270.44 854.51,273.88 852.00,273.82
             847.99,273.72 844.37,267.22 843.00,264.00
             843.00,264.00 863.00,246.85 863.00,246.85
             865.78,244.40 871.25,239.98 872.98,236.99
             877.22,229.66 867.47,222.86 862.00,223.63
             857.41,224.29 852.41,228.94 849.00,231.87
             842.84,237.16 834.74,245.07 828.00,249.00
             826.28,246.90 821.18,241.55 821.20,239.00
             821.21,235.81 828.55,230.31 831.00,228.15
             831.00,228.15 862.00,201.00 862.00,201.00 Z
           M 170.00,253.00
           C 171.45,250.18 175.60,243.26 178.30,241.82
             181.30,240.23 186.64,243.81 186.68,247.09
             186.71,250.07 180.06,257.60 178.00,260.00
             184.38,263.29 191.02,269.23 197.00,273.62
             199.33,275.33 203.19,278.55 206.27,277.80
             210.52,276.78 212.49,271.57 214.00,268.00
             214.00,268.00 224.00,271.00 224.00,271.00
             223.78,275.48 223.35,278.02 221.05,282.00
             219.70,284.32 217.86,286.72 215.83,288.47
             199.67,302.41 185.38,280.29 173.00,273.83
             167.87,271.15 167.58,275.61 163.91,275.98
             161.40,276.23 158.00,273.39 156.00,272.00
             156.00,272.00 161.00,264.00 161.00,264.00
             161.00,264.00 152.00,258.00 152.00,258.00
             152.00,258.00 158.00,245.00 158.00,245.00
             158.00,245.00 170.00,253.00 170.00,253.00 Z
           M 136.00,300.00
           C 121.69,297.09 119.31,284.66 125.27,273.00
             126.93,269.77 131.98,262.20 135.96,262.20
             138.93,262.20 142.44,266.98 141.72,269.83
             140.93,272.94 131.30,279.32 138.23,285.59
             138.97,286.26 140.03,286.98 141.00,287.23
             145.95,288.55 150.27,278.59 152.00,275.00
             152.00,275.00 162.00,280.00 162.00,280.00
             162.00,280.00 154.00,296.00 154.00,296.00
             154.00,296.00 193.00,319.00 193.00,319.00
             193.00,319.00 186.00,331.00 186.00,331.00
             186.00,331.00 145.00,307.00 145.00,307.00
             142.21,314.88 138.75,312.01 133.00,309.00
             133.00,309.00 136.00,300.00 136.00,300.00 Z
           M 914.00,347.00
           C 909.63,346.90 906.00,346.58 902.00,344.58
             890.28,338.69 882.91,321.52 887.39,309.00
             891.08,298.66 902.54,290.90 913.00,288.67
             934.62,284.05 950.42,306.08 945.20,323.00
             942.55,331.60 933.74,336.65 926.00,340.00
             926.00,340.00 907.00,307.00 907.00,307.00
             903.14,310.00 899.89,312.83 899.23,318.00
             898.02,327.46 906.10,334.50 915.00,335.00
             915.00,335.00 914.00,347.00 914.00,347.00 Z
           M 915.00,302.00
           C 915.91,305.80 916.94,307.63 918.85,311.00
             920.26,313.48 924.70,321.92 927.20,322.66
             931.99,324.08 935.10,315.61 934.43,312.00
             932.44,301.29 923.71,300.44 915.00,302.00 Z
           M 132.00,325.53
           C 145.15,323.38 161.39,328.86 168.10,341.00
             176.05,355.40 167.38,378.69 151.00,382.47
             137.59,385.57 120.11,378.27 113.67,366.00
             107.73,354.66 112.45,338.27 122.04,330.39
             125.06,327.90 128.31,326.62 132.00,325.53 Z
           M 132.00,339.43
           C 124.49,342.46 120.76,351.79 125.23,358.91
             129.19,365.23 141.61,370.91 149.00,369.02
             157.93,366.73 161.84,355.43 156.35,348.09
             151.02,340.97 140.48,338.14 132.00,339.43 Z
           M 908.00,360.00
           C 908.00,360.00 961.00,339.00 961.00,339.00
             961.00,339.00 966.00,351.00 966.00,351.00
             966.00,351.00 958.00,356.00 958.00,356.00
             974.55,357.54 980.49,377.52 972.61,386.91
             968.20,392.17 960.23,394.90 954.00,397.40
             954.00,397.40 927.00,408.00 927.00,408.00
             927.00,408.00 922.00,395.00 922.00,395.00
             922.00,395.00 945.00,385.60 945.00,385.60
             949.03,383.96 955.79,381.56 958.89,378.73
             966.81,371.51 958.69,360.59 950.00,360.14
             942.78,359.77 922.27,370.50 913.00,373.00
             913.00,373.00 908.00,360.00 908.00,360.00 Z
           M 118.00,436.00
           C 126.68,432.68 133.30,426.32 135.32,417.00
             136.59,411.12 133.08,403.20 126.00,403.77
             120.02,404.25 115.29,413.35 112.69,418.00
             106.70,428.74 99.31,436.66 86.00,433.87
             63.06,429.08 67.80,397.00 80.30,384.18
             82.79,381.63 84.87,380.54 88.00,379.00
             88.00,379.00 95.00,390.00 95.00,390.00
             88.34,395.05 83.57,400.38 82.51,409.00
             81.74,415.24 86.71,420.85 92.00,419.21
             96.92,417.69 100.19,411.20 102.58,407.00
             107.87,397.66 111.84,389.21 124.00,388.19
             138.70,386.95 149.85,398.56 148.91,413.00
             147.91,428.38 140.00,442.75 125.00,448.00
             125.00,448.00 118.00,436.00 118.00,436.00 Z
           M 974.00,400.00
           C 974.00,400.00 984.00,398.00 984.00,398.00
             984.74,400.45 985.39,404.33 988.22,405.07
             990.85,405.82 994.76,403.34 997.35,405.07
             999.56,406.47 1002.25,414.35 1003.00,417.00
             1003.00,417.00 990.00,420.00 990.00,420.00
             990.00,420.00 994.00,436.00 994.00,436.00
             994.00,436.00 984.00,439.00 984.00,439.00
             984.00,439.00 980.00,423.00 980.00,423.00
             980.00,423.00 956.00,429.16 956.00,429.16
             952.63,430.12 948.92,431.41 947.61,435.04
             946.19,438.99 949.08,442.79 951.00,446.00
             948.93,447.59 944.75,451.13 942.04,450.90
             939.20,450.65 937.42,447.28 936.17,445.00
             933.69,439.50 932.70,430.41 936.17,425.02
             939.70,418.99 946.60,417.04 953.00,415.37
             953.00,415.37 976.00,409.00 976.00,409.00
             976.00,409.00 974.00,400.00 974.00,400.00 Z
           M 50.00,527.00
           C 50.00,527.00 98.00,527.00 98.00,527.00
             98.00,527.00 115.00,528.00 115.00,528.00
             115.00,528.00 193.00,528.00 193.00,528.00
             193.00,528.00 193.00,542.00 193.00,542.00
             193.00,542.00 73.00,542.00 73.00,542.00
             73.00,542.00 58.00,541.00 58.00,541.00
             58.00,541.00 50.00,541.00 50.00,541.00
             50.00,541.00 50.00,527.00 50.00,527.00 Z
           M 875.00,527.00
           C 875.00,527.00 923.00,527.00 923.00,527.00
             923.00,527.00 940.00,528.00 940.00,528.00
             940.00,528.00 1018.00,528.00 1018.00,528.00
             1018.00,528.00 1018.00,542.00 1018.00,542.00
             1018.00,542.00 898.00,542.00 898.00,542.00
             898.00,542.00 883.00,541.00 883.00,541.00
             883.00,541.00 875.00,541.00 875.00,541.00
             875.00,541.00 875.00,527.00 875.00,527.00 Z
           M 929.00,781.00
           C 929.00,781.00 903.00,754.00 903.00,754.00
             900.49,751.49 894.75,746.67 894.73,743.00
             894.70,738.79 900.44,730.39 905.01,730.66
             905.01,730.66 933.00,739.95 933.00,739.95
             933.00,739.95 976.00,755.00 976.00,755.00
             974.71,757.90 971.73,764.50 968.79,765.80
             965.66,767.18 957.27,763.25 954.00,762.05
             954.00,762.05 916.00,749.00 916.00,749.00
             921.01,756.00 934.52,769.51 941.00,776.00
             943.82,778.82 951.78,786.46 952.79,790.00
             953.81,793.55 949.89,798.16 948.00,801.00
             948.00,801.00 894.00,785.00 894.00,785.00
             898.15,790.80 912.29,804.61 918.00,809.58
             920.97,812.15 930.71,820.73 931.71,824.00
             932.94,828.02 927.78,833.64 925.00,836.00
             925.00,836.00 894.00,805.09 894.00,805.09
             889.36,800.76 875.34,788.49 872.42,784.00
             871.51,782.60 871.09,781.70 871.30,780.00
             871.64,777.32 876.61,769.32 879.18,768.35
             881.65,767.41 890.18,770.46 893.00,771.34
             893.00,771.34 914.00,777.66 914.00,777.66
             918.52,779.07 924.32,781.29 929.00,781.00 Z
           M 180.00,745.00
           C 183.31,746.51 185.25,747.46 187.90,750.10
             189.72,751.93 190.98,753.72 192.18,756.00
             200.65,772.15 187.99,779.45 176.00,787.05
             171.16,790.12 167.54,793.24 162.00,795.00
             162.00,795.00 166.00,804.00 166.00,804.00
             166.00,804.00 156.00,809.00 156.00,809.00
             156.00,809.00 154.19,806.20 154.19,806.20
             150.05,801.62 147.17,807.30 143.00,806.91
             138.60,806.49 135.26,800.70 134.00,797.00
             134.00,797.00 144.00,791.00 144.00,791.00
             144.00,791.00 136.00,776.00 136.00,776.00
             137.90,774.74 141.61,771.90 143.91,772.10
             147.58,772.43 151.52,780.93 153.00,784.00
             159.05,781.09 168.43,775.04 174.00,771.10
             176.48,769.35 180.33,766.37 180.26,763.00
             180.17,759.50 176.52,756.85 174.00,755.00
             174.00,755.00 180.00,745.00 180.00,745.00 Z
           M 195.00,842.00
           C 192.01,842.00 187.84,842.16 185.00,841.47
             177.58,839.67 170.94,831.56 170.20,824.00
             168.93,811.15 187.09,799.52 196.00,792.08
             200.42,788.39 203.57,785.13 209.00,783.00
             210.76,785.36 215.26,790.10 214.97,793.00
             214.72,795.59 211.83,797.83 210.00,799.41
             210.00,799.41 194.00,812.75 194.00,812.75
             188.96,816.98 182.03,821.94 186.71,829.01
             197.39,845.11 212.66,827.31 222.00,819.42
             224.20,817.57 229.06,812.90 231.96,813.11
             235.61,813.37 239.61,820.01 241.00,823.00
             241.00,823.00 197.00,859.00 197.00,859.00
             194.74,856.62 189.30,851.73 190.32,848.09
             190.73,846.61 193.86,843.41 195.00,842.00 Z
           M 844.00,839.00
           C 841.63,840.01 835.91,842.34 833.43,841.34
             831.06,840.38 831.07,837.14 831.02,835.00
             830.82,827.39 832.58,822.89 837.47,817.01
             841.23,812.49 847.17,807.87 853.00,806.53
             870.57,802.47 890.25,818.29 890.96,836.00
             891.52,849.90 879.45,864.97 865.00,864.97
             858.46,864.97 852.79,862.21 848.02,857.82
             846.13,856.08 843.73,853.83 844.25,851.00
             844.77,848.10 849.90,843.19 851.97,841.00
             851.97,841.00 868.00,823.00 868.00,823.00
             864.69,821.46 860.72,819.04 857.00,819.30
             851.21,819.72 844.54,826.44 843.41,832.00
             842.87,834.61 843.40,836.51 844.00,839.00 Z
           M 875.00,830.00
           C 869.89,833.66 860.64,843.41 858.00,849.00
             860.75,850.69 863.64,852.64 867.00,852.63
             869.66,852.61 871.97,851.42 873.95,849.72
             880.95,843.72 879.80,836.81 875.00,830.00 Z
           M 244.02,835.48
           C 259.51,833.34 275.40,847.50 275.96,863.00
             276.54,879.11 259.45,897.19 243.00,895.81
             230.91,894.80 217.32,883.60 217.02,871.00
             216.95,868.34 217.03,865.56 217.80,863.00
             218.99,859.05 224.67,849.48 229.00,848.91
             231.49,848.58 234.20,850.97 236.00,852.44
             236.00,852.44 251.00,865.83 251.00,865.83
             253.04,867.63 256.68,871.35 259.58,869.38
             260.61,868.67 261.41,867.12 261.85,865.99
             264.68,858.77 257.44,850.53 251.00,848.16
             247.01,846.70 244.55,848.17 242.56,846.89
             240.37,845.48 238.56,838.95 240.64,836.93
             241.59,836.01 242.84,835.85 244.02,835.48 Z
           M 817.00,840.00
           C 817.00,840.00 836.08,862.00 836.08,862.00
             836.08,862.00 869.00,903.00 869.00,903.00
             869.00,903.00 857.00,911.00 857.00,911.00
             857.00,911.00 838.00,888.00 838.00,888.00
             837.58,893.19 836.92,897.76 833.61,902.00
             816.65,923.70 788.41,901.88 784.47,881.00
             781.73,866.47 791.31,855.08 806.00,855.00
             806.00,855.00 811.00,855.00 811.00,855.00
             811.00,855.00 807.00,848.00 807.00,848.00
             807.00,848.00 817.00,840.00 817.00,840.00 Z
           M 252.00,878.00
           C 245.87,873.36 239.25,865.12 232.00,863.00
             228.76,869.92 227.11,875.03 234.04,880.58
             236.23,882.34 239.16,883.63 242.00,883.63
             245.51,883.63 248.96,881.56 252.00,880.00
             252.00,880.00 252.00,878.00 252.00,878.00 Z
           M 808.00,863.39
           C 786.21,870.44 806.00,899.14 820.00,896.64
             828.97,895.04 832.68,885.95 829.52,878.00
             825.78,868.56 818.48,862.00 808.00,863.39 Z
           M 296.00,928.00
           C 291.02,929.12 287.28,930.59 282.00,929.79
             272.85,928.41 265.12,920.50 266.19,911.00
             267.00,903.75 274.35,893.42 278.20,887.00
             280.16,883.74 287.28,870.35 290.21,869.41
             293.81,868.25 299.83,873.51 302.00,876.00
             302.00,876.00 288.40,898.00 288.40,898.00
             286.88,900.53 282.39,907.63 281.71,910.00
             279.98,916.13 287.12,922.12 293.00,921.02
             297.91,920.10 301.99,914.96 304.56,911.00
             304.56,911.00 320.00,886.00 320.00,886.00
             320.00,886.00 332.00,893.00 332.00,893.00
             332.00,893.00 316.80,919.00 316.80,919.00
             314.83,922.29 310.83,928.07 311.53,931.98
             312.38,936.69 320.21,942.61 327.91,937.01
             334.09,932.52 345.00,911.66 350.00,904.00
             350.00,904.00 362.00,911.00 362.00,911.00
             362.00,911.00 333.00,960.00 333.00,960.00
             333.00,960.00 321.00,954.00 321.00,954.00
             321.00,954.00 325.00,947.00 325.00,947.00
             325.00,947.00 316.00,947.95 316.00,947.95
             307.96,948.27 299.34,944.09 296.80,936.00
             295.97,933.35 296.03,930.74 296.00,928.00 Z
           M 781.00,962.00
           C 768.10,967.56 751.99,978.09 738.00,978.91
             712.61,980.38 693.77,945.32 702.48,924.00
             707.59,911.49 719.77,906.37 731.00,900.75
             736.36,898.07 742.30,894.62 748.00,893.00
             748.00,893.00 754.25,906.00 754.25,906.00
             754.25,906.00 769.25,936.00 769.25,936.00
             769.25,936.00 781.00,962.00 781.00,962.00 Z
           M 415.00,906.00
           C 415.00,906.00 429.00,910.00 429.00,910.00
             429.00,910.00 401.00,986.00 401.00,986.00
             401.00,986.00 388.00,982.00 388.00,982.00
             388.00,982.00 390.00,974.00 390.00,974.00
             383.30,976.39 383.56,977.19 376.00,976.98
             367.13,976.74 358.64,970.87 356.53,962.00
             355.90,959.37 355.97,955.74 356.00,953.00
             356.21,935.04 369.63,913.99 390.00,919.79
             400.80,922.86 399.89,927.38 406.00,933.00
             406.00,933.00 415.00,906.00 415.00,906.00 Z
           M 740.00,910.00
           C 729.56,914.50 716.02,919.91 715.10,933.00
             714.14,946.59 725.61,966.82 741.00,965.47
             747.95,964.86 756.96,960.44 763.00,957.00
             763.00,957.00 740.00,910.00 740.00,910.00 Z
           M 648.00,953.00
           C 645.55,952.65 640.37,951.96 638.82,950.15
             636.73,948.16 637.96,945.11 638.82,943.00
             641.97,937.00 646.80,933.50 653.00,931.36
             662.37,928.12 672.59,927.50 680.99,933.64
             695.89,944.54 698.63,973.21 682.00,983.87
             669.04,992.17 651.53,991.02 644.33,976.00
             643.12,973.50 640.50,967.06 641.61,964.42
             642.74,961.73 648.39,960.78 651.00,959.98
             651.00,959.98 677.00,952.00 677.00,952.00
             675.39,948.73 673.91,945.90 670.91,943.65
             661.94,936.94 651.91,944.44 648.00,953.00 Z
           M 383.00,932.43
           C 374.54,935.77 368.91,948.07 370.21,957.00
             371.33,964.63 379.83,969.27 387.00,967.01
             400.52,962.73 408.36,928.65 383.00,932.43 Z
           M 448.00,938.59
           C 458.00,938.68 468.27,941.40 474.35,950.00
             483.45,962.86 478.20,986.82 465.00,995.01
             459.71,998.29 454.94,998.07 449.00,998.00
             444.33,997.94 441.33,997.41 437.00,995.53
             431.79,993.28 426.30,988.21 423.97,983.00
             419.29,972.55 422.49,954.50 430.33,946.18
             435.37,940.83 440.98,939.23 448.00,938.59 Z
           M 594.00,945.00
           C 594.00,945.00 611.00,942.00 611.00,942.00
             611.00,942.00 641.00,996.00 641.00,996.00
             638.21,996.37 629.51,998.26 627.39,997.39
             624.73,996.30 621.12,988.67 619.76,986.00
             616.36,979.36 609.08,964.44 604.00,960.00
             604.00,960.00 598.75,990.00 598.75,990.00
             598.27,992.77 597.32,1000.37 595.41,1002.15
             593.19,1004.20 585.10,1004.86 582.00,1005.00
             582.00,1005.00 594.00,945.00 594.00,945.00 Z
           M 487.00,957.00
           C 487.00,954.59 486.60,948.40 488.02,946.60
             489.36,944.91 492.07,945.00 494.00,945.18
             502.26,945.93 507.01,949.75 508.37,958.00
             509.11,962.50 507.45,973.00 507.09,978.00
             507.09,978.00 504.83,1005.00 504.83,1005.00
             504.83,1005.00 503.00,1028.00 503.00,1028.00
             503.00,1028.00 489.00,1027.00 489.00,1027.00
             489.00,1027.00 493.58,974.00 493.58,974.00
             494.09,970.12 495.37,960.40 491.71,958.02
             490.27,957.09 488.62,957.13 487.00,957.00 Z
           M 530.00,967.00
           C 520.14,963.89 516.95,958.62 527.01,951.97
             533.43,947.73 538.70,947.92 546.00,948.00
             564.96,948.23 572.19,961.80 572.00,979.00
             571.93,984.80 570.75,991.16 567.35,996.00
             560.74,1005.42 552.68,1007.12 542.00,1007.00
             532.66,1006.88 524.79,1003.12 521.27,994.00
             519.94,990.56 517.32,978.62 520.60,976.02
             522.08,974.85 525.18,975.01 527.00,975.00
             527.00,975.00 558.00,974.00 558.00,974.00
             554.30,958.24 540.30,953.74 530.00,967.00 Z
           M 449.00,950.38
           C 446.22,951.08 444.55,951.56 442.33,953.56
             432.67,962.23 432.46,988.56 451.00,986.58
             458.90,985.74 462.26,978.93 463.71,972.00
             466.21,960.17 463.23,949.78 449.00,950.38 Z
           M 680.00,961.00
           C 675.26,961.43 674.40,961.96 670.00,963.28
             667.18,964.13 658.49,966.03 657.13,968.51
             654.66,973.02 662.32,977.63 666.00,977.85
             676.80,978.51 679.92,969.93 680.00,961.00 Z
           M 558.00,983.00
           C 558.00,983.00 533.00,983.00 533.00,983.00
             533.36,998.74 546.48,998.99 552.87,993.57
             556.04,990.89 557.11,986.88 558.00,983.00 Z" />
</svg>
