<?xml version="1.0" encoding="UTF-8" standalone="no"?>
<!DOCTYPE svg PUBLIC "-//W3C//DTD SVG 20010904//EN"
              "http://www.w3.org/TR/2001/REC-SVG-20010904/DTD/svg10.dtd">

<svg xmlns="http://www.w3.org/2000/svg"
     width="11.25in" height="11.25in"
     viewBox="0 0 1080 1080">
  <path id="Selection"
        fill="none" stroke="black" stroke-width="1"
        d="M 537.00,49.00
           C 537.00,49.00 551.00,49.00 551.00,49.00
             551.00,49.00 551.00,65.00 551.00,65.00
             551.00,65.00 550.00,81.00 550.00,81.00
             550.00,81.00 550.00,108.00 550.00,108.00
             550.01,115.18 549.52,119.40 557.98,119.00
             558.05,121.27 559.07,127.77 557.98,129.26
             556.54,131.20 552.16,131.07 550.00,130.91
             538.43,130.02 536.05,121.99 536.00,112.00
             536.00,112.00 536.00,97.00 536.00,97.00
             536.00,97.00 537.00,81.00 537.00,81.00
             537.00,81.00 537.00,49.00 537.00,49.00 Z
           M 445.00,57.72
           C 456.95,58.22 455.81,72.40 446.00,73.57
             439.74,74.31 434.88,67.79 438.02,62.11
             439.62,59.22 442.05,58.46 445.00,57.72 Z
           M 634.00,90.00
           C 634.00,90.00 639.00,69.00 639.00,69.00
             639.00,69.00 641.73,61.03 641.73,61.03
             641.73,61.03 654.00,62.00 654.00,62.00
             654.00,62.00 643.80,119.00 643.80,119.00
             643.80,119.00 640.00,141.00 640.00,141.00
             640.00,141.00 626.00,139.00 626.00,139.00
             626.00,139.00 627.00,131.00 627.00,131.00
             621.83,134.40 619.52,136.72 613.00,136.96
             582.33,138.09 587.00,96.96 598.21,85.17
             605.43,77.59 618.99,75.08 627.82,81.61
             630.96,83.94 632.39,86.57 634.00,90.00 Z
           M 450.00,62.00
           C 450.00,62.00 449.00,62.00 449.00,62.00
             449.00,62.00 450.00,63.00 450.00,63.00
             450.00,63.00 450.00,62.00 450.00,62.00 Z
           M 453.00,65.00
           C 453.00,65.00 452.00,65.00 452.00,65.00
             452.00,65.00 453.00,66.00 453.00,66.00
             453.00,66.00 453.00,65.00 453.00,65.00 Z
           M 439.00,68.00
           C 439.00,68.00 438.00,68.00 438.00,68.00
             438.00,68.00 439.00,69.00 439.00,69.00
             439.00,69.00 439.00,68.00 439.00,68.00 Z
           M 479.00,94.00
           C 477.50,92.15 474.12,88.36 473.90,86.01
             473.46,81.47 482.37,76.86 486.00,75.55
             497.26,71.47 504.76,71.95 515.00,78.00
             515.00,78.00 514.00,80.00 514.00,80.00
             520.35,84.13 519.82,100.72 520.72,108.00
             521.41,113.59 520.59,118.62 528.00,118.00
             528.71,120.32 530.25,125.28 528.89,127.49
             527.42,129.87 515.94,133.78 510.00,123.00
             510.00,123.00 508.00,123.00 508.00,123.00
             504.51,131.82 498.74,133.20 490.00,132.99
             479.26,132.72 473.32,125.66 474.10,115.00
             474.80,105.36 482.68,101.45 491.00,99.15
             494.81,98.10 500.83,96.83 503.40,93.61
             507.87,88.02 501.40,83.92 496.00,84.48
             487.81,85.33 485.18,89.59 479.00,94.00 Z
           M 453.00,139.00
           C 453.00,139.00 448.20,116.00 448.20,116.00
             448.20,116.00 445.25,101.00 445.25,101.00
             444.76,98.17 442.12,86.16 442.77,84.30
             443.80,81.32 452.89,79.34 455.02,81.64
             456.37,83.09 457.54,90.70 458.00,93.00
             458.00,93.00 463.80,123.00 463.80,123.00
             464.33,125.67 466.46,133.26 464.94,135.41
             463.68,137.19 455.39,138.52 453.00,139.00 Z
           M 413.00,99.00
           C 414.47,92.73 416.50,88.55 423.00,86.44
             425.01,85.55 428.39,84.69 429.98,86.44
             430.98,87.82 431.73,95.94 432.00,98.00
             429.89,98.10 428.06,98.16 426.00,98.80
             420.07,100.66 415.85,105.63 416.21,112.00
             416.21,112.00 425.00,146.00 425.00,146.00
             425.00,146.00 411.00,149.00 411.00,149.00
             411.00,149.00 396.00,94.00 396.00,94.00
             396.00,94.00 409.00,91.00 409.00,91.00
             409.00,91.00 411.00,99.00 411.00,99.00
             411.00,99.00 413.00,99.00 413.00,99.00 Z
           M 479.00,87.00
           C 479.00,87.00 478.00,87.00 478.00,87.00
             478.00,87.00 479.00,88.00 479.00,88.00
             479.00,88.00 479.00,87.00 479.00,87.00 Z
           M 616.00,90.35
           C 599.25,95.21 598.75,130.83 620.00,125.90
             634.51,122.54 639.06,88.21 616.00,90.35 Z
           M 350.00,99.00
           C 350.00,99.00 362.00,93.00 362.00,93.00
             362.00,93.00 366.00,105.00 366.00,105.00
             366.00,105.00 383.00,99.00 383.00,99.00
             383.00,99.00 386.00,109.00 386.00,109.00
             386.00,109.00 371.00,115.00 371.00,115.00
             371.00,115.00 378.80,134.00 378.80,134.00
             380.22,137.54 381.82,142.16 385.10,144.39
             387.41,145.96 390.34,145.69 393.00,146.00
             393.00,146.00 396.00,141.00 396.00,141.00
             397.64,141.78 398.44,142.01 399.89,143.29
             410.22,152.42 393.41,158.64 386.00,158.96
             382.80,159.10 379.80,159.02 377.00,157.26
             369.01,152.25 361.76,129.41 358.00,120.00
             358.00,120.00 350.00,123.00 350.00,123.00
             350.00,123.00 346.00,113.00 346.00,113.00
             346.00,113.00 354.00,111.00 354.00,111.00
             354.00,111.00 350.00,99.00 350.00,99.00 Z
           M 701.00,148.00
           C 694.63,160.72 674.30,156.44 665.00,149.45
             654.11,141.24 653.31,129.01 657.36,117.00
             659.71,110.01 663.53,103.38 670.00,99.48
             681.69,92.43 701.75,96.92 708.44,109.00
             713.68,118.46 709.49,126.76 707.00,136.00
             699.35,135.31 677.60,127.35 670.00,124.00
             669.22,127.20 668.54,130.73 669.43,134.00
             671.11,140.18 678.82,144.58 685.00,144.37
             688.15,144.27 691.90,142.11 695.00,141.00
             695.00,141.00 701.00,148.00 701.00,148.00 Z
           M 507.00,102.00
           C 503.07,103.41 491.72,107.21 489.60,110.13
             485.58,115.67 488.90,122.81 496.00,122.81
             501.56,122.81 504.15,119.30 508.00,116.00
             508.00,116.00 507.00,102.00 507.00,102.00 Z
           M 354.00,104.00
           C 354.00,104.00 353.00,104.00 353.00,104.00
             353.00,104.00 354.00,105.00 354.00,105.00
             354.00,105.00 354.00,104.00 354.00,104.00 Z
           M 494.00,105.00
           C 494.00,105.00 493.00,105.00 493.00,105.00
             493.00,105.00 494.00,106.00 494.00,106.00
             494.00,106.00 494.00,105.00 494.00,105.00 Z
           M 696.91,124.00
           C 697.86,120.45 698.64,116.46 696.91,113.04
             692.83,105.52 677.71,103.18 673.00,117.00
             678.07,117.79 687.30,120.55 691.00,124.00
             691.00,124.00 696.91,124.00 696.91,124.00 Z
           M 675.00,109.00
           C 675.00,109.00 674.00,109.00 674.00,109.00
             674.00,109.00 675.00,110.00 675.00,110.00
             675.00,110.00 675.00,109.00 675.00,109.00 Z
           M 369.00,117.00
           C 369.00,117.00 368.00,117.00 368.00,117.00
             368.00,117.00 369.00,118.00 369.00,118.00
             369.00,118.00 369.00,117.00 369.00,117.00 Z
           M 725.00,165.00
           C 729.04,164.89 738.61,166.72 737.04,159.00
             736.39,155.81 732.34,152.77 730.00,150.73
             723.77,145.30 717.75,140.11 719.33,131.00
             721.12,120.70 730.26,115.99 740.00,118.02
             751.15,120.34 759.13,126.19 763.00,137.00
             763.00,137.00 752.00,141.00 752.00,141.00
             749.57,135.56 747.18,131.32 741.00,129.64
             737.84,128.78 731.65,129.79 732.39,134.29
             732.96,137.72 738.43,141.70 741.00,143.80
             747.18,148.86 752.52,154.34 751.01,163.00
             749.12,173.81 741.15,177.72 731.00,176.91
             726.85,176.58 722.40,175.56 720.00,172.00
             711.32,171.06 706.27,161.53 704.00,154.00
             704.00,154.00 716.00,150.00 716.00,150.00
             718.28,159.60 721.17,158.14 725.00,165.00 Z
           M 489.00,121.00
           C 489.00,121.00 488.00,121.00 488.00,121.00
             488.00,121.00 489.00,122.00 489.00,122.00
             489.00,122.00 489.00,121.00 489.00,121.00 Z
           M 540.00,121.00
           C 540.00,121.00 539.00,121.00 539.00,121.00
             539.00,121.00 540.00,122.00 540.00,122.00
             540.00,122.00 540.00,121.00 540.00,121.00 Z
           M 792.02,121.74
           C 804.22,120.88 805.84,135.72 796.00,137.64
             787.03,139.40 780.85,126.27 792.02,121.74 Z
           M 323.00,170.00
           C 329.94,170.92 335.66,172.33 341.96,168.03
             346.01,165.26 348.47,160.08 342.89,157.21
             338.01,154.70 329.66,160.58 320.00,159.90
             306.89,158.98 301.10,144.35 308.65,134.04
             315.93,124.07 328.46,120.93 340.00,123.00
             340.00,123.00 338.00,133.82 338.00,133.82
             338.00,133.82 331.00,133.82 331.00,133.82
             326.42,134.03 316.73,137.87 318.66,143.89
             320.49,149.62 328.00,146.87 332.00,145.87
             341.17,143.58 350.99,141.58 357.01,151.02
             362.36,159.40 359.55,169.46 351.96,175.39
             342.73,182.60 331.01,185.13 320.00,181.00
             320.00,181.00 323.00,170.00 323.00,170.00 Z
           M 627.00,125.00
           C 627.00,125.00 626.00,125.00 626.00,125.00
             626.00,125.00 627.00,126.00 627.00,126.00
             627.00,126.00 627.00,125.00 627.00,125.00 Z
           M 801.00,126.00
           C 801.00,126.00 800.00,126.00 800.00,126.00
             800.00,126.00 801.00,127.00 801.00,127.00
             801.00,127.00 801.00,126.00 801.00,126.00 Z
           M 497.00,129.00
           C 497.00,129.00 496.00,129.00 496.00,129.00
             496.00,129.00 497.00,130.00 497.00,130.00
             497.00,130.00 497.00,129.00 497.00,129.00 Z
           M 498.00,130.00
           C 498.00,130.00 497.00,130.00 497.00,130.00
             497.00,130.00 498.00,131.00 498.00,131.00
             498.00,131.00 498.00,130.00 498.00,130.00 Z
           M 632.00,132.00
           C 632.00,132.00 631.00,132.00 631.00,132.00
             631.00,132.00 632.00,133.00 632.00,133.00
             632.00,133.00 632.00,132.00 632.00,132.00 Z
           M 779.00,140.00
           C 779.00,140.00 791.00,146.00 791.00,146.00
             791.00,146.00 782.40,162.00 782.40,162.00
             782.40,162.00 762.00,195.00 762.00,195.00
             762.00,195.00 750.00,189.00 750.00,189.00
             750.00,189.00 761.46,169.00 761.46,169.00
             761.46,169.00 779.00,140.00 779.00,140.00 Z
           M 318.00,146.00
           C 318.00,146.00 317.00,146.00 317.00,146.00
             317.00,146.00 318.00,147.00 318.00,147.00
             318.00,147.00 318.00,146.00 318.00,146.00 Z
           M 667.00,146.00
           C 667.00,146.00 666.00,146.00 666.00,146.00
             666.00,146.00 667.00,147.00 667.00,147.00
             667.00,147.00 667.00,146.00 667.00,146.00 Z
           M 787.00,146.00
           C 787.00,146.00 786.00,146.00 786.00,146.00
             786.00,146.00 787.00,147.00 787.00,147.00
             787.00,147.00 787.00,146.00 787.00,146.00 Z
           M 285.00,146.00
           C 285.00,146.00 301.42,168.00 301.42,168.00
             301.42,168.00 319.00,193.00 319.00,193.00
             316.52,194.76 311.24,199.37 308.17,198.57
             306.79,198.20 303.39,195.06 302.00,194.00
             301.97,197.51 301.98,200.66 300.66,204.00
             297.91,210.95 288.62,217.33 281.00,216.44
             270.07,215.18 261.72,200.41 255.71,192.00
             253.72,189.21 245.72,178.93 246.03,176.09
             246.40,172.72 253.50,167.88 256.68,169.74
             258.26,170.67 261.38,175.32 262.58,177.00
             266.39,182.33 276.94,198.50 282.00,200.97
             288.67,204.23 295.80,196.31 295.90,190.00
             296.01,183.80 289.71,175.89 286.12,171.00
             286.12,171.00 274.00,154.00 274.00,154.00
             274.00,154.00 285.00,146.00 285.00,146.00 Z
           M 743.00,147.00
           C 743.00,147.00 742.00,147.00 742.00,147.00
             742.00,147.00 743.00,148.00 743.00,148.00
             743.00,148.00 743.00,147.00 743.00,147.00 Z
           M 669.00,148.00
           C 669.00,148.00 668.00,148.00 668.00,148.00
             668.00,148.00 669.00,149.00 669.00,149.00
             669.00,149.00 669.00,148.00 669.00,148.00 Z
           M 689.00,154.00
           C 689.00,154.00 688.00,154.00 688.00,154.00
             688.00,154.00 689.00,155.00 689.00,155.00
             689.00,155.00 689.00,154.00 689.00,154.00 Z
           M 750.00,155.00
           C 750.00,155.00 749.00,155.00 749.00,155.00
             749.00,155.00 750.00,156.00 750.00,156.00
             750.00,156.00 750.00,155.00 750.00,155.00 Z
           M 378.00,156.00
           C 378.00,156.00 377.00,156.00 377.00,156.00
             377.00,156.00 378.00,157.00 378.00,157.00
             378.00,157.00 378.00,156.00 378.00,156.00 Z
           M 381.00,156.00
           C 381.00,156.00 380.00,156.00 380.00,156.00
             380.00,156.00 381.00,157.00 381.00,157.00
             381.00,157.00 381.00,156.00 381.00,156.00 Z
           M 771.00,158.00
           C 771.00,158.00 770.00,158.00 770.00,158.00
             770.00,158.00 771.00,159.00 771.00,159.00
             771.00,159.00 771.00,158.00 771.00,158.00 Z
           M 793.00,191.00
           C 792.48,184.63 790.81,180.14 794.05,174.00
             803.19,156.66 825.02,163.55 833.00,179.00
             835.12,177.73 839.48,174.69 841.91,175.01
             844.98,175.43 848.68,180.50 846.35,183.30
             843.97,186.15 837.39,185.99 834.00,186.00
             833.99,188.57 834.11,191.54 833.35,194.00
             830.53,203.15 821.04,207.72 812.00,205.39
             804.56,203.48 798.99,197.92 796.01,197.07
             792.60,196.10 790.01,198.59 791.95,202.05
             794.47,206.56 805.34,212.38 809.77,220.00
             816.55,231.63 806.50,245.55 792.00,243.82
             780.44,242.44 762.19,228.41 759.53,217.00
             756.97,205.99 766.73,197.58 778.00,205.00
             778.51,198.07 777.02,187.99 788.00,189.37
             789.84,189.60 791.32,190.30 793.00,191.00 Z
           M 747.00,169.00
           C 747.00,169.00 746.00,169.00 746.00,169.00
             746.00,169.00 747.00,170.00 747.00,170.00
             747.00,170.00 747.00,169.00 747.00,169.00 Z
           M 746.00,170.00
           C 746.00,170.00 745.00,170.00 745.00,170.00
             745.00,170.00 746.00,171.00 746.00,171.00
             746.00,171.00 746.00,170.00 746.00,170.00 Z
           M 224.00,204.00
           C 221.30,198.56 214.47,193.26 210.20,188.70
             208.57,186.97 205.16,183.45 205.19,181.00
             205.21,179.43 206.19,178.17 207.16,177.04
             213.83,169.31 217.76,175.76 223.00,181.00
             223.00,181.00 254.18,213.09 254.18,213.09
             259.44,218.59 265.59,223.84 270.00,230.00
             261.18,237.44 260.93,239.28 254.00,233.00
             254.00,237.55 254.33,241.71 252.47,246.00
             250.48,250.58 247.40,253.86 243.00,256.18
             240.17,257.67 237.20,258.68 234.00,258.90
             218.56,259.98 197.74,239.61 199.34,224.00
             199.95,218.00 202.86,213.87 206.00,209.00
             206.00,209.00 208.00,210.00 208.00,210.00
             211.51,203.36 217.31,203.43 224.00,204.00 Z
           M 804.07,191.00
           C 806.09,192.26 808.62,194.02 811.00,194.56
             813.04,195.02 815.12,194.78 816.98,193.82
             832.00,186.16 815.33,166.17 806.15,179.19
             804.85,181.02 804.33,182.75 804.07,184.96
             804.07,184.96 804.07,191.00 804.07,191.00 Z
           M 758.00,177.00
           C 758.00,177.00 757.00,177.00 757.00,177.00
             757.00,177.00 758.00,178.00 758.00,178.00
             758.00,178.00 758.00,177.00 758.00,177.00 Z
           M 844.00,177.00
           C 844.00,177.00 843.00,177.00 843.00,177.00
             843.00,177.00 844.00,178.00 844.00,178.00
             844.00,178.00 844.00,177.00 844.00,177.00 Z
           M 263.00,179.00
           C 263.00,179.00 262.00,179.00 262.00,179.00
             262.00,179.00 263.00,180.00 263.00,180.00
             263.00,180.00 263.00,179.00 263.00,179.00 Z
           M 337.00,180.00
           C 337.00,180.00 336.00,180.00 336.00,180.00
             336.00,180.00 337.00,181.00 337.00,181.00
             337.00,181.00 337.00,180.00 337.00,180.00 Z
           M 815.00,236.00
           C 815.00,236.00 844.72,207.88 844.72,207.88
             844.72,207.88 858.00,197.00 858.00,197.00
             864.65,206.33 866.18,204.10 860.00,213.00
             860.00,213.00 864.00,213.00 864.00,213.00
             866.75,213.01 869.35,212.96 872.00,213.85
             881.50,217.06 888.47,228.20 884.87,238.00
             882.40,244.72 871.44,254.61 865.97,259.91
             863.51,262.29 853.92,271.84 851.00,271.81
             847.26,271.76 843.67,265.86 842.00,263.00
             842.00,263.00 856.00,249.01 856.00,249.01
             860.30,244.80 868.88,238.63 870.67,233.00
             872.71,226.60 863.79,217.13 855.00,220.50
             849.34,222.66 838.73,233.41 834.01,237.91
             832.49,239.37 827.69,244.25 825.91,244.68
             821.95,245.64 817.00,238.79 815.00,236.00 Z
           M 271.00,201.00
           C 271.00,201.00 270.00,201.00 270.00,201.00
             270.00,201.00 271.00,202.00 271.00,202.00
             271.00,202.00 271.00,201.00 271.00,201.00 Z
           M 243.00,203.00
           C 243.00,203.00 242.00,203.00 242.00,203.00
             242.00,203.00 243.00,204.00 243.00,204.00
             243.00,204.00 243.00,203.00 243.00,203.00 Z
           M 282.00,203.00
           C 282.00,203.00 281.00,203.00 281.00,203.00
             281.00,203.00 282.00,204.00 282.00,204.00
             282.00,204.00 282.00,203.00 282.00,203.00 Z
           M 768.00,203.00
           C 768.00,203.00 767.00,203.00 767.00,203.00
             767.00,203.00 768.00,204.00 768.00,204.00
             768.00,204.00 768.00,203.00 768.00,203.00 Z
           M 853.00,204.00
           C 853.00,204.00 852.00,204.00 852.00,204.00
             852.00,204.00 853.00,205.00 853.00,205.00
             853.00,205.00 853.00,204.00 853.00,204.00 Z
           M 863.00,204.00
           C 863.00,204.00 862.00,204.00 862.00,204.00
             862.00,204.00 863.00,205.00 863.00,205.00
             863.00,205.00 863.00,204.00 863.00,204.00 Z
           M 766.00,206.00
           C 766.00,206.00 765.00,206.00 765.00,206.00
             765.00,206.00 766.00,207.00 766.00,207.00
             766.00,207.00 766.00,206.00 766.00,206.00 Z
           M 271.00,209.00
           C 271.00,209.00 270.00,209.00 270.00,209.00
             270.00,209.00 271.00,210.00 271.00,210.00
             271.00,210.00 271.00,209.00 271.00,209.00 Z
           M 777.05,210.65
           C 763.37,216.48 783.80,233.74 792.00,232.40
             795.45,231.83 798.37,228.62 797.34,225.00
             796.32,221.40 785.54,212.24 782.00,210.65
             779.86,210.02 779.18,210.26 777.05,210.65 Z
           M 224.00,211.40
           C 200.22,219.03 222.33,248.35 237.00,244.57
             245.33,242.43 248.88,233.59 245.64,226.00
             242.05,217.60 233.42,210.32 224.00,211.40 Z
           M 791.00,211.00
           C 791.00,211.00 790.00,211.00 790.00,211.00
             790.00,211.00 791.00,212.00 791.00,212.00
             791.00,212.00 791.00,211.00 791.00,211.00 Z
           M 845.00,211.00
           C 845.00,211.00 844.00,211.00 844.00,211.00
             844.00,211.00 845.00,212.00 845.00,212.00
             845.00,212.00 845.00,211.00 845.00,211.00 Z
           M 859.00,213.00
           C 859.00,213.00 858.00,213.00 858.00,213.00
             858.00,213.00 859.00,214.00 859.00,214.00
             859.00,214.00 859.00,213.00 859.00,213.00 Z
           M 207.00,214.00
           C 207.00,214.00 206.00,214.00 206.00,214.00
             206.00,214.00 207.00,215.00 207.00,215.00
             207.00,215.00 207.00,214.00 207.00,214.00 Z
           M 789.00,214.00
           C 789.00,214.00 788.00,214.00 788.00,214.00
             788.00,214.00 789.00,215.00 789.00,215.00
             789.00,215.00 789.00,214.00 789.00,214.00 Z
           M 793.00,217.00
           C 793.00,217.00 792.00,217.00 792.00,217.00
             792.00,217.00 793.00,218.00 793.00,218.00
             793.00,218.00 793.00,217.00 793.00,217.00 Z
           M 766.00,225.00
           C 766.00,225.00 765.00,225.00 765.00,225.00
             765.00,225.00 766.00,226.00 766.00,226.00
             766.00,226.00 766.00,225.00 766.00,225.00 Z
           M 826.00,228.00
           C 826.00,228.00 825.00,228.00 825.00,228.00
             825.00,228.00 826.00,229.00 826.00,229.00
             826.00,229.00 826.00,228.00 826.00,228.00 Z
           M 261.00,235.00
           C 261.00,235.00 260.00,235.00 260.00,235.00
             260.00,235.00 261.00,236.00 261.00,236.00
             261.00,236.00 261.00,235.00 261.00,235.00 Z
           M 821.00,236.00
           C 821.00,236.00 820.00,236.00 820.00,236.00
             820.00,236.00 821.00,237.00 821.00,237.00
             821.00,237.00 821.00,236.00 821.00,236.00 Z
           M 818.00,237.00
           C 818.00,237.00 817.00,237.00 817.00,237.00
             817.00,237.00 818.00,238.00 818.00,238.00
             818.00,238.00 818.00,237.00 818.00,237.00 Z
           M 781.00,238.00
           C 781.00,238.00 780.00,238.00 780.00,238.00
             780.00,238.00 781.00,239.00 781.00,239.00
             781.00,239.00 781.00,238.00 781.00,238.00 Z
           M 210.00,244.00
           C 210.00,244.00 209.00,244.00 209.00,244.00
             209.00,244.00 210.00,245.00 210.00,245.00
             210.00,245.00 210.00,244.00 210.00,244.00 Z
           M 212.00,246.00
           C 212.00,246.00 211.00,246.00 211.00,246.00
             211.00,246.00 212.00,247.00 212.00,247.00
             212.00,247.00 212.00,246.00 212.00,246.00 Z
           M 170.00,253.00
           C 171.34,246.90 177.53,245.76 183.00,246.04
             192.39,246.53 207.33,259.60 214.96,265.52
             217.19,267.25 223.67,271.37 223.98,274.10
             224.28,276.78 219.57,282.52 218.00,285.00
             218.00,285.00 195.00,268.37 195.00,268.37
             192.18,266.27 186.28,261.69 183.00,260.96
             176.47,259.51 167.58,269.93 173.01,279.00
             178.61,288.37 195.71,295.29 203.00,305.00
             203.00,305.00 194.00,315.00 194.00,315.00
             194.00,315.00 162.00,290.65 162.00,290.65
             162.00,290.65 149.00,280.00 149.00,280.00
             155.86,271.42 155.74,269.44 164.00,275.00
             164.00,275.00 165.00,274.00 165.00,274.00
             162.24,266.43 161.87,257.30 170.00,253.00 Z
           M 223.00,249.00
           C 223.00,249.00 222.00,249.00 222.00,249.00
             222.00,249.00 223.00,250.00 223.00,250.00
             223.00,250.00 223.00,249.00 223.00,249.00 Z
           M 194.00,251.00
           C 194.00,251.00 193.00,251.00 193.00,251.00
             193.00,251.00 194.00,252.00 194.00,252.00
             194.00,252.00 194.00,251.00 194.00,251.00 Z
           M 221.00,254.00
           C 221.00,254.00 220.00,254.00 220.00,254.00
             220.00,254.00 221.00,255.00 221.00,255.00
             221.00,255.00 221.00,254.00 221.00,254.00 Z
           M 244.00,254.00
           C 244.00,254.00 243.00,254.00 243.00,254.00
             243.00,254.00 244.00,255.00 244.00,255.00
             244.00,255.00 244.00,254.00 244.00,254.00 Z
           M 896.00,315.00
           C 890.89,315.00 886.74,315.38 882.00,313.00
             878.04,311.02 875.56,308.46 872.90,305.00
             867.32,297.71 864.40,289.21 866.53,280.00
             869.59,266.72 886.55,255.17 900.00,256.10
             913.45,257.02 926.65,271.50 925.79,285.00
             925.18,294.60 915.76,304.09 907.00,307.00
             907.00,307.00 886.00,276.00 886.00,276.00
             882.83,278.80 879.12,282.61 878.48,287.00
             877.13,296.30 888.04,303.28 896.00,304.00
             896.00,304.00 896.00,315.00 896.00,315.00 Z
           M 863.00,260.00
           C 863.00,260.00 862.00,260.00 862.00,260.00
             862.00,260.00 863.00,261.00 863.00,261.00
             863.00,261.00 863.00,260.00 863.00,260.00 Z
           M 188.00,261.00
           C 188.00,261.00 187.00,261.00 187.00,261.00
             187.00,261.00 188.00,262.00 188.00,262.00
             188.00,262.00 188.00,261.00 188.00,261.00 Z
           M 202.00,263.00
           C 202.00,263.00 201.00,263.00 201.00,263.00
             201.00,263.00 202.00,264.00 202.00,264.00
             202.00,264.00 202.00,263.00 202.00,263.00 Z
           M 196.00,265.00
           C 196.00,265.00 195.00,265.00 195.00,265.00
             195.00,265.00 196.00,266.00 196.00,266.00
             196.00,266.00 196.00,265.00 196.00,265.00 Z
           M 854.00,265.00
           C 854.00,265.00 853.00,265.00 853.00,265.00
             853.00,265.00 854.00,266.00 854.00,266.00
             854.00,266.00 854.00,265.00 854.00,265.00 Z
           M 858.00,265.00
           C 858.00,265.00 857.00,265.00 857.00,265.00
             857.00,265.00 858.00,266.00 858.00,266.00
             858.00,266.00 858.00,265.00 858.00,265.00 Z
           M 906.00,267.00
           C 906.00,267.00 905.00,267.00 905.00,267.00
             905.00,267.00 906.00,268.00 906.00,268.00
             906.00,268.00 906.00,267.00 906.00,267.00 Z
           M 906.00,291.00
           C 916.65,287.84 915.78,275.87 907.96,270.87
             903.21,267.62 896.89,269.17 892.00,270.87
             892.00,270.87 906.00,291.00 906.00,291.00 Z
           M 165.00,275.00
           C 165.00,275.00 164.00,275.00 164.00,275.00
             164.00,275.00 165.00,276.00 165.00,276.00
             165.00,276.00 165.00,275.00 165.00,275.00 Z
           M 174.00,282.00
           C 174.00,282.00 173.00,282.00 173.00,282.00
             173.00,282.00 174.00,283.00 174.00,283.00
             174.00,283.00 174.00,282.00 174.00,282.00 Z
           M 172.00,286.00
           C 172.00,286.00 171.00,286.00 171.00,286.00
             171.00,286.00 172.00,287.00 172.00,287.00
             172.00,287.00 172.00,286.00 172.00,286.00 Z
           M 119.04,287.63
           C 121.05,287.31 121.85,286.93 123.98,287.63
             134.42,290.42 129.28,305.52 120.00,303.53
             113.25,302.08 110.17,292.84 119.04,287.63 Z
           M 906.00,295.00
           C 906.00,295.00 905.00,295.00 905.00,295.00
             905.00,295.00 906.00,296.00 906.00,296.00
             906.00,296.00 906.00,295.00 906.00,295.00 Z
           M 118.00,298.00
           C 118.00,298.00 117.00,298.00 117.00,298.00
             117.00,298.00 118.00,299.00 118.00,299.00
             118.00,299.00 118.00,298.00 118.00,298.00 Z
           M 915.00,298.00
           C 915.00,298.00 914.00,298.00 914.00,298.00
             914.00,298.00 915.00,299.00 915.00,299.00
             915.00,299.00 915.00,298.00 915.00,298.00 Z
           M 116.00,299.00
           C 116.00,299.00 115.00,299.00 115.00,299.00
             115.00,299.00 116.00,300.00 116.00,300.00
             116.00,300.00 116.00,299.00 116.00,299.00 Z
           M 132.00,310.00
           C 133.22,307.27 136.35,300.32 139.21,299.29
             142.06,298.27 149.31,303.31 152.00,304.85
             152.00,304.85 188.00,326.00 188.00,326.00
             188.00,326.00 182.00,338.00 182.00,338.00
             182.00,338.00 162.00,327.06 162.00,327.06
             162.00,327.06 132.00,310.00 132.00,310.00 Z
           M 886.00,302.00
           C 886.00,302.00 885.00,302.00 885.00,302.00
             885.00,302.00 886.00,303.00 886.00,303.00
             886.00,303.00 886.00,302.00 886.00,302.00 Z
           M 891.00,330.00
           C 891.00,330.00 921.00,313.58 921.00,313.58
             921.00,313.58 942.00,303.00 942.00,303.00
             943.18,305.73 947.07,312.00 945.85,314.61
             945.85,314.61 940.00,320.00 940.00,320.00
             950.84,320.25 955.54,324.51 958.00,335.00
             958.00,335.00 946.00,338.00 946.00,338.00
             944.54,334.93 943.28,331.64 940.79,329.23
             936.24,324.81 930.37,325.64 925.00,327.88
             925.00,327.88 897.00,342.00 897.00,342.00
             897.00,342.00 891.00,330.00 891.00,330.00 Z
           M 903.00,326.00
           C 903.00,326.00 902.00,326.00 902.00,326.00
             902.00,326.00 903.00,327.00 903.00,327.00
             903.00,327.00 903.00,326.00 903.00,326.00 Z
           M 896.00,331.00
           C 896.00,331.00 895.00,331.00 895.00,331.00
             895.00,331.00 896.00,332.00 896.00,332.00
             896.00,332.00 896.00,331.00 896.00,331.00 Z
           M 50.00,527.00
           C 50.00,527.00 87.00,527.00 87.00,527.00
             87.00,527.00 104.00,528.00 104.00,528.00
             104.00,528.00 193.00,528.00 193.00,528.00
             193.00,528.00 193.00,542.00 193.00,542.00
             193.00,542.00 80.00,542.00 80.00,542.00
             80.00,542.00 65.00,541.00 65.00,541.00
             65.00,541.00 50.00,541.00 50.00,541.00
             50.00,541.00 50.00,527.00 50.00,527.00 Z
           M 875.00,527.00
           C 875.00,527.00 912.00,527.00 912.00,527.00
             912.00,527.00 929.00,528.00 929.00,528.00
             929.00,528.00 1018.00,528.00 1018.00,528.00
             1018.00,528.00 1018.00,542.00 1018.00,542.00
             1018.00,542.00 906.00,542.00 906.00,542.00
             906.00,542.00 891.00,541.00 891.00,541.00
             891.00,541.00 875.00,541.00 875.00,541.00
             875.00,541.00 875.00,527.00 875.00,527.00 Z
           M 176.00,813.00
           C 177.56,815.48 178.82,817.67 181.10,819.61
             191.59,828.53 204.94,813.47 213.00,807.00
             214.97,805.42 219.52,801.16 221.96,801.19
             225.53,801.24 229.51,808.18 231.00,811.00
             231.00,811.00 199.00,836.88 199.00,836.88
             196.36,838.95 190.18,845.11 187.01,844.89
             183.58,844.65 179.78,838.66 178.00,836.00
             178.00,836.00 185.00,830.00 185.00,830.00
             180.78,829.64 177.00,830.56 173.00,828.55
             171.61,827.85 170.23,826.86 169.11,825.79
             161.18,818.26 169.04,814.98 176.00,813.00 Z
           M 221.00,802.00
           C 221.00,802.00 220.00,802.00 220.00,802.00
             220.00,802.00 221.00,803.00 221.00,803.00
             221.00,803.00 221.00,802.00 221.00,802.00 Z
           M 179.00,821.00
           C 179.00,821.00 178.00,821.00 178.00,821.00
             178.00,821.00 179.00,822.00 179.00,822.00
             179.00,822.00 179.00,821.00 179.00,821.00 Z
           M 208.00,825.00
           C 208.00,825.00 207.00,825.00 207.00,825.00
             207.00,825.00 208.00,826.00 208.00,826.00
             208.00,826.00 208.00,825.00 208.00,825.00 Z
           M 248.00,862.00
           C 248.00,862.00 250.89,854.00 250.89,854.00
             252.00,847.65 247.51,841.22 242.00,838.45
             237.09,835.99 233.39,838.06 231.14,835.43
             230.27,834.41 229.69,832.31 229.48,831.01
             228.47,824.74 233.17,824.83 238.00,825.04
             251.76,825.64 265.73,841.18 264.47,855.00
             263.54,865.23 256.46,875.01 248.00,880.45
             235.64,888.41 221.92,885.58 212.18,874.96
             208.52,870.97 201.81,859.66 207.00,855.00
             206.25,847.18 213.09,840.24 219.00,836.00
             219.00,836.00 234.00,850.00 234.00,850.00
             234.00,850.00 248.00,862.00 248.00,862.00 Z
           M 814.00,842.00
           C 817.10,839.80 822.61,833.63 826.00,833.87
             829.01,834.09 836.28,840.29 839.00,842.26
             846.64,847.78 867.96,861.96 873.00,868.00
             870.98,869.65 866.44,873.79 864.00,874.11
             860.95,874.50 856.38,870.41 854.00,868.63
             847.83,864.00 836.60,854.57 830.00,852.00
             830.00,852.00 840.25,874.00 840.25,874.00
             841.63,876.78 845.54,884.29 845.95,887.00
             846.58,891.09 841.99,895.71 838.00,896.02
             834.97,896.26 829.58,892.05 827.00,890.33
             827.00,890.33 803.00,875.00 803.00,875.00
             804.54,880.29 812.72,894.34 815.86,900.00
             817.21,902.44 821.01,908.26 820.77,910.91
             820.44,914.50 814.91,917.65 812.00,919.00
             812.00,919.00 787.37,871.00 787.37,871.00
             786.90,869.72 786.49,868.48 786.81,867.09
             787.52,864.03 793.85,858.91 797.00,858.93
             799.88,858.94 805.50,863.15 808.00,864.84
             815.43,869.83 823.95,876.41 832.00,880.00
             832.00,880.00 814.00,842.00 814.00,842.00 Z
           M 830.00,837.00
           C 830.00,837.00 829.00,837.00 829.00,837.00
             829.00,837.00 830.00,838.00 830.00,838.00
             830.00,838.00 830.00,837.00 830.00,837.00 Z
           M 251.00,844.00
           C 251.00,844.00 250.00,844.00 250.00,844.00
             250.00,844.00 251.00,845.00 251.00,845.00
             251.00,845.00 251.00,844.00 251.00,844.00 Z
           M 223.00,851.00
           C 207.82,863.25 227.97,881.59 240.00,868.00
             240.00,868.00 223.00,851.00 223.00,851.00 Z
           M 850.00,851.00
           C 850.00,851.00 849.00,851.00 849.00,851.00
             849.00,851.00 850.00,852.00 850.00,852.00
             850.00,852.00 850.00,851.00 850.00,851.00 Z
           M 844.00,857.00
           C 844.00,857.00 843.00,857.00 843.00,857.00
             843.00,857.00 844.00,858.00 844.00,858.00
             844.00,858.00 844.00,857.00 844.00,857.00 Z
           M 236.00,861.00
           C 236.00,861.00 235.00,861.00 235.00,861.00
             235.00,861.00 236.00,862.00 236.00,862.00
             236.00,862.00 236.00,861.00 236.00,861.00 Z
           M 803.00,862.00
           C 803.00,862.00 802.00,862.00 802.00,862.00
             802.00,862.00 803.00,863.00 803.00,863.00
             803.00,863.00 803.00,862.00 803.00,862.00 Z
           M 308.00,886.00
           C 313.40,880.28 316.26,875.27 320.72,869.00
             322.12,867.03 324.38,863.36 327.09,863.32
             329.35,863.29 334.91,867.60 337.00,869.00
             334.66,875.11 323.47,891.95 318.00,895.00
             317.25,900.36 313.08,904.68 310.00,909.00
             310.00,909.00 291.00,936.00 291.00,936.00
             291.00,936.00 280.00,929.00 280.00,929.00
             280.00,929.00 284.00,922.00 284.00,922.00
             276.84,921.20 272.91,923.50 266.00,919.53
             233.19,900.70 278.29,844.44 303.18,874.09
             306.96,878.59 306.66,880.69 308.00,886.00 Z
           M 221.00,870.00
           C 221.00,870.00 220.00,870.00 220.00,870.00
             220.00,870.00 221.00,871.00 221.00,871.00
             221.00,871.00 221.00,870.00 221.00,870.00 Z
           M 804.00,873.00
           C 804.00,873.00 803.00,873.00 803.00,873.00
             803.00,873.00 804.00,874.00 804.00,874.00
             804.00,874.00 804.00,873.00 804.00,873.00 Z
           M 285.00,879.40
           C 277.76,881.72 270.36,890.36 269.21,898.00
             267.71,907.95 274.97,915.86 285.00,913.61
             294.78,911.41 308.52,891.59 295.70,881.97
             292.21,879.35 289.19,878.93 285.00,879.40 Z
           M 306.00,879.00
           C 306.00,879.00 305.00,879.00 305.00,879.00
             305.00,879.00 306.00,880.00 306.00,880.00
             306.00,880.00 306.00,879.00 306.00,879.00 Z
           M 263.00,881.00
           C 263.00,881.00 262.00,881.00 262.00,881.00
             262.00,881.00 263.00,882.00 263.00,882.00
             263.00,882.00 263.00,881.00 263.00,881.00 Z
           M 278.00,881.00
           C 278.00,881.00 277.00,881.00 277.00,881.00
             277.00,881.00 278.00,882.00 278.00,882.00
             278.00,882.00 278.00,881.00 278.00,881.00 Z
           M 277.00,882.00
           C 277.00,882.00 276.00,882.00 276.00,882.00
             276.00,882.00 277.00,883.00 277.00,883.00
             277.00,883.00 277.00,882.00 277.00,882.00 Z
           M 301.00,882.00
           C 301.00,882.00 300.00,882.00 300.00,882.00
             300.00,882.00 301.00,883.00 301.00,883.00
             301.00,883.00 301.00,882.00 301.00,882.00 Z
           M 735.00,914.00
           C 735.00,908.74 734.78,904.83 737.41,900.00
             743.11,889.54 759.48,882.54 771.00,885.94
             781.67,889.08 790.81,901.26 792.67,912.00
             793.62,917.45 793.23,925.14 790.47,930.00
             782.20,944.58 759.77,952.41 747.04,934.96
             744.54,931.53 743.19,929.06 742.00,925.00
             742.00,925.00 774.00,906.00 774.00,906.00
             771.46,902.49 768.45,898.92 764.00,897.89
             761.43,897.30 759.37,897.89 757.00,898.88
             749.80,901.89 746.72,906.32 746.00,914.00
             746.00,914.00 735.00,914.00 735.00,914.00 Z
           M 775.00,897.00
           C 775.00,897.00 774.00,897.00 774.00,897.00
             774.00,897.00 775.00,898.00 775.00,898.00
             775.00,898.00 775.00,897.00 775.00,897.00 Z
           M 750.00,901.00
           C 750.00,901.00 749.00,901.00 749.00,901.00
             749.00,901.00 750.00,902.00 750.00,902.00
             750.00,902.00 750.00,901.00 750.00,901.00 Z
           M 336.00,902.53
           C 349.62,900.29 363.77,905.08 370.32,918.00
             378.32,933.77 365.90,957.59 349.00,961.47
             332.49,965.26 313.02,950.53 314.09,933.00
             314.86,920.46 323.78,906.34 336.00,902.53 Z
           M 310.00,907.00
           C 310.00,907.00 309.00,907.00 309.00,907.00
             309.00,907.00 310.00,908.00 310.00,908.00
             310.00,908.00 310.00,907.00 310.00,907.00 Z
           M 708.00,912.00
           C 708.00,912.00 721.00,907.00 721.00,907.00
             721.00,907.00 739.28,950.00 739.28,950.00
             739.28,950.00 752.00,982.00 752.00,982.00
             752.00,982.00 739.00,986.00 739.00,986.00
             739.00,986.00 728.00,959.00 728.00,959.00
             728.00,959.00 726.00,959.00 726.00,959.00
             722.52,973.63 705.20,979.61 693.04,971.16
             682.66,963.94 677.85,950.12 678.00,938.00
             678.16,925.63 688.04,915.01 701.00,916.34
             701.00,916.34 711.00,919.00 711.00,919.00
             711.00,919.00 708.00,912.00 708.00,912.00 Z
           M 778.93,913.00
           C 778.93,913.00 757.00,926.00 757.00,926.00
             761.96,935.00 773.38,936.50 778.93,926.96
             781.60,922.20 780.41,917.88 778.93,913.00 Z
           M 342.00,914.25
           C 327.94,918.97 320.37,947.08 340.00,949.63
             357.16,951.87 368.65,915.97 347.00,914.25
             345.15,913.95 343.81,914.15 342.00,914.25 Z
           M 359.00,914.00
           C 359.00,914.00 358.00,914.00 358.00,914.00
             358.00,914.00 359.00,915.00 359.00,915.00
             359.00,915.00 359.00,914.00 359.00,914.00 Z
           M 382.00,930.00
           C 382.48,927.61 383.46,921.43 385.56,920.11
             387.46,918.91 391.12,920.13 393.00,920.97
             399.77,923.99 402.45,928.77 401.91,936.00
             401.49,941.55 397.88,949.50 396.00,955.00
             396.00,955.00 379.00,1003.00 379.00,1003.00
             379.00,1003.00 366.00,998.00 366.00,998.00
             366.00,998.00 381.42,954.00 381.42,954.00
             381.42,954.00 387.52,935.04 387.52,935.04
             387.52,935.04 385.00,929.00 385.00,929.00
             385.00,929.00 382.00,930.00 382.00,930.00 Z
           M 395.00,924.00
           C 395.00,924.00 394.00,924.00 394.00,924.00
             394.00,924.00 395.00,925.00 395.00,925.00
             395.00,925.00 395.00,924.00 395.00,924.00 Z
           M 394.00,926.00
           C 394.00,926.00 393.00,926.00 393.00,926.00
             393.00,926.00 394.00,927.00 394.00,927.00
             394.00,927.00 394.00,926.00 394.00,926.00 Z
           M 702.00,926.39
           C 698.75,927.37 696.23,928.31 694.15,931.21
             687.80,940.05 696.32,964.77 710.99,961.47
             729.62,957.27 720.51,932.34 710.99,927.45
             707.85,925.84 705.35,925.97 702.00,926.39 Z
           M 718.00,930.00
           C 718.00,930.00 717.00,930.00 717.00,930.00
             717.00,930.00 718.00,931.00 718.00,931.00
             718.00,931.00 718.00,930.00 718.00,930.00 Z
           M 412.00,942.00
           C 416.04,938.39 418.66,936.37 424.00,934.93
             435.51,931.81 451.91,938.38 457.59,949.00
             461.88,957.04 460.17,970.94 456.48,979.00
             453.91,984.63 448.71,990.00 443.00,992.47
             433.68,996.51 416.10,993.17 409.80,984.91
             402.89,975.86 406.48,965.86 408.00,956.00
             408.00,956.00 445.81,965.00 445.81,965.00
             446.10,962.26 446.40,958.61 445.81,956.00
             443.62,949.31 434.66,944.73 428.00,946.43
             425.22,947.14 422.41,949.41 420.00,951.00
             420.00,951.00 412.00,942.00 412.00,942.00 Z
           M 603.00,951.00
           C 607.19,948.59 607.55,946.19 611.04,943.42
             614.66,940.54 621.40,938.80 626.00,939.19
             653.61,941.51 660.19,998.83 626.00,998.82
             620.59,998.82 616.67,996.23 612.00,994.00
             612.00,994.00 617.00,1024.00 617.00,1024.00
             617.00,1024.00 604.00,1026.00 604.00,1026.00
             604.00,1026.00 593.00,970.00 593.00,970.00
             593.00,970.00 590.20,955.00 590.20,955.00
             589.85,953.24 589.03,949.98 589.69,948.31
             590.84,945.36 599.08,944.55 602.00,944.00
             602.00,944.00 603.00,951.00 603.00,951.00 Z
           M 756.00,941.00
           C 756.00,941.00 755.00,941.00 755.00,941.00
             755.00,941.00 756.00,942.00 756.00,942.00
             756.00,942.00 756.00,941.00 756.00,941.00 Z
           M 615.00,942.00
           C 615.00,942.00 614.00,942.00 614.00,942.00
             614.00,942.00 615.00,943.00 615.00,943.00
             615.00,943.00 615.00,942.00 615.00,942.00 Z
           M 462.00,1001.21
           C 462.00,1001.21 480.75,961.00 480.75,961.00
             482.15,958.21 486.54,948.42 488.63,947.00
             490.47,945.75 500.76,946.69 502.86,947.60
             506.75,949.28 507.88,958.08 509.00,962.00
             509.00,962.00 520.00,1007.00 520.00,1007.00
             517.68,1006.69 508.82,1005.92 507.43,1004.98
             505.33,1003.55 503.82,995.67 503.13,993.00
             500.93,984.51 498.45,968.66 494.00,962.00
             494.00,962.00 481.42,990.00 481.42,990.00
             480.12,992.98 477.57,1000.06 474.61,1001.21
             472.21,1002.53 465.10,1001.14 462.00,1001.21 Z
           M 528.00,962.00
           C 529.72,958.51 530.98,956.12 534.09,953.61
             543.90,945.68 563.42,945.67 572.70,954.47
             580.12,961.50 581.11,970.39 581.00,980.00
             580.90,988.48 578.55,995.08 571.98,1000.79
             562.47,1009.07 543.05,1009.77 534.34,999.91
             530.50,995.56 527.50,984.71 528.60,979.06
             529.51,974.39 534.35,975.01 538.00,974.96
             538.00,974.96 549.00,974.96 549.00,974.96
             549.00,974.96 559.00,974.00 559.00,974.00
             559.00,974.00 567.00,974.00 567.00,974.00
             565.37,963.65 557.83,956.28 547.00,960.26
             541.89,962.14 540.62,965.63 537.83,966.13
             535.48,966.55 530.37,963.15 528.00,962.00 Z
           M 616.00,952.43
           C 600.18,958.68 606.78,986.32 620.00,987.80
             640.33,990.08 637.50,960.45 626.98,953.74
             623.63,951.60 619.75,951.86 616.00,952.43 Z
           M 354.00,954.00
           C 354.00,954.00 353.00,954.00 353.00,954.00
             353.00,954.00 354.00,955.00 354.00,955.00
             354.00,955.00 354.00,954.00 354.00,954.00 Z
           M 356.00,955.00
           C 356.00,955.00 355.00,955.00 355.00,955.00
             355.00,955.00 356.00,956.00 356.00,956.00
             356.00,956.00 356.00,955.00 356.00,955.00 Z
           M 567.00,964.00
           C 567.00,964.00 566.00,964.00 566.00,964.00
             566.00,964.00 567.00,965.00 567.00,965.00
             567.00,965.00 567.00,964.00 567.00,964.00 Z
           M 443.00,973.00
           C 443.00,973.00 419.00,968.00 419.00,968.00
             418.42,972.35 418.25,976.24 421.43,979.78
             427.55,986.60 440.53,984.59 443.00,973.00 Z
           M 567.00,983.00
           C 567.00,983.00 551.00,983.00 551.00,983.00
             549.04,983.00 545.15,982.77 543.60,984.02
             540.05,986.90 544.32,993.16 547.10,994.91
             552.90,998.57 560.57,996.34 564.44,990.96
             566.25,988.44 566.57,985.95 567.00,983.00 Z
           M 442.00,990.00
           C 442.00,990.00 441.00,990.00 441.00,990.00
             441.00,990.00 442.00,991.00 442.00,991.00
             442.00,991.00 442.00,990.00 442.00,990.00 Z
           M 445.00,990.00
           C 445.00,990.00 444.00,990.00 444.00,990.00
             444.00,990.00 445.00,991.00 445.00,991.00
             445.00,991.00 445.00,990.00 445.00,990.00 Z
           M 639.00,993.00
           C 639.00,993.00 638.00,993.00 638.00,993.00
             638.00,993.00 639.00,994.00 639.00,994.00
             639.00,994.00 639.00,993.00 639.00,993.00 Z
           M 562.00,996.00
           C 562.00,996.00 561.00,996.00 561.00,996.00
             561.00,996.00 562.00,997.00 562.00,997.00
             562.00,997.00 562.00,996.00 562.00,996.00 Z
           M 547.00,998.00
           C 547.00,998.00 546.00,998.00 546.00,998.00
             546.00,998.00 547.00,999.00 547.00,999.00
             547.00,999.00 547.00,998.00 547.00,998.00 Z" />
</svg>
