<?xml version="1.0" encoding="UTF-8" standalone="no"?>
<!DOCTYPE svg PUBLIC "-//W3C//DTD SVG 20010904//EN"
              "http://www.w3.org/TR/2001/REC-SVG-20010904/DTD/svg10.dtd">

<svg xmlns="http://www.w3.org/2000/svg"
     width="285.714mm" height="285.714mm"
     viewBox="0 0 1080 1080">
  <path id="Selection"
        fill="none" stroke="black" stroke-width="1"
        d="M 518.00,44.00
           C 518.00,44.00 532.00,44.00 532.00,44.00
             532.00,44.00 532.00,69.00 532.00,69.00
             532.00,69.00 533.00,84.00 533.00,84.00
             533.00,84.00 533.00,101.00 533.00,101.00
             533.01,104.73 532.67,108.75 535.43,111.69
             537.58,113.98 540.09,113.78 541.44,116.31
             542.40,118.11 542.83,122.87 543.00,125.00
             536.03,125.92 527.91,127.25 522.85,120.79
             519.66,116.72 519.02,108.09 519.00,103.00
             519.00,103.00 518.00,44.00 518.00,44.00 Z
           M 557.06,44.74
           C 560.28,43.95 563.88,43.52 566.72,45.74
             571.71,49.63 569.44,57.17 563.98,59.26
             555.36,62.56 547.27,50.66 557.06,44.74 Z
           M 374.00,76.00
           C 374.00,76.00 431.00,60.00 431.00,60.00
             431.00,60.00 434.00,72.00 434.00,72.00
             434.00,72.00 413.00,78.00 413.00,78.00
             413.00,78.00 422.02,108.00 422.02,108.00
             422.02,108.00 431.00,140.00 431.00,140.00
             431.00,140.00 417.00,143.00 417.00,143.00
             417.00,143.00 403.71,98.00 403.71,98.00
             402.80,94.85 400.62,84.61 397.70,83.35
             395.16,82.25 381.41,87.00 378.00,88.00
             378.00,88.00 374.00,76.00 374.00,76.00 Z
           M 553.00,67.00
           C 553.00,67.00 567.00,68.00 567.00,68.00
             567.00,68.00 565.00,125.00 565.00,125.00
             565.00,125.00 551.00,125.00 551.00,125.00
             551.00,125.00 553.00,67.00 553.00,67.00 Z
           M 486.00,70.00
           C 486.00,70.00 499.00,68.00 499.00,68.00
             499.00,68.00 505.13,110.00 505.13,110.00
             505.13,110.00 505.96,124.40 505.96,124.40
             505.96,124.40 494.00,127.00 494.00,127.00
             494.00,127.00 493.00,119.00 493.00,119.00
             489.48,122.06 487.23,126.31 483.00,128.56
             473.94,133.37 461.78,131.73 456.84,122.00
             454.37,117.15 453.65,108.57 452.87,103.00
             452.87,103.00 449.00,75.00 449.00,75.00
             449.00,75.00 463.00,73.00 463.00,73.00
             463.00,73.00 466.58,100.00 466.58,100.00
             467.11,103.55 467.74,109.93 469.31,112.98
             474.19,122.48 485.55,118.39 488.93,110.00
             490.73,105.23 489.66,100.84 488.93,96.00
             487.82,87.37 486.03,78.73 486.00,70.00 Z
           M 586.00,69.00
           C 586.00,69.00 600.00,71.00 600.00,71.00
             600.00,71.00 599.00,79.00 599.00,79.00
             603.18,76.25 605.81,73.84 611.00,73.18
             620.21,72.02 628.95,74.73 634.00,83.00
             637.32,88.45 637.07,94.87 637.00,101.00
             636.83,114.92 629.92,131.26 614.00,131.96
             601.63,132.50 600.36,128.86 592.00,122.00
             592.00,122.00 588.00,151.00 588.00,151.00
             588.00,151.00 574.00,149.00 574.00,149.00
             574.00,149.00 583.42,87.00 583.42,87.00
             583.42,87.00 586.00,69.00 586.00,69.00 Z
           M 683.00,70.00
           C 683.00,70.00 703.00,76.32 703.00,76.32
             703.00,76.32 739.00,90.00 739.00,90.00
             739.00,90.00 734.49,99.89 734.49,99.89
             734.49,99.89 728.00,99.19 728.00,99.19
             728.00,99.19 714.00,94.00 714.00,94.00
             714.00,94.00 698.42,135.00 698.42,135.00
             698.42,135.00 691.00,154.00 691.00,154.00
             691.00,154.00 678.00,149.00 678.00,149.00
             678.00,149.00 683.68,132.00 683.68,132.00
             683.68,132.00 700.00,88.00 700.00,88.00
             700.00,88.00 680.00,81.00 680.00,81.00
             680.00,81.00 683.00,70.00 683.00,70.00 Z
           M 606.00,84.39
           C 593.16,88.63 590.19,113.75 604.00,118.87
             606.54,119.81 609.37,120.15 612.00,119.43
             622.22,116.61 626.42,96.09 620.15,88.33
             616.43,83.72 611.37,83.66 606.00,84.39 Z
           M 326.00,103.00
           C 326.00,103.00 332.00,115.00 332.00,115.00
             332.00,115.00 348.00,108.00 348.00,108.00
             348.00,108.00 352.00,118.00 352.00,118.00
             352.00,118.00 338.00,125.00 338.00,125.00
             338.00,125.00 347.25,144.00 347.25,144.00
             348.82,147.11 350.83,151.40 354.04,153.08
             359.08,155.71 362.48,150.07 366.00,150.18
             369.31,150.28 372.26,154.58 374.00,157.00
             371.08,160.09 368.76,162.63 365.00,164.79
             363.18,165.84 361.03,166.70 359.00,167.24
             343.25,171.41 338.48,158.44 332.75,147.00
             330.30,142.10 327.51,137.28 326.00,132.00
             326.00,132.00 317.00,135.00 317.00,135.00
             317.00,135.00 312.00,125.00 312.00,125.00
             312.00,125.00 320.00,122.00 320.00,122.00
             320.00,122.00 315.00,111.00 315.00,111.00
             315.00,111.00 326.00,103.00 326.00,103.00 Z
           M 284.04,115.02
           C 296.59,110.80 299.59,125.27 290.96,129.42
             284.26,132.64 278.28,126.63 279.47,121.00
             280.12,117.93 281.71,116.76 284.04,115.02 Z
           M 739.01,132.00
           C 738.64,129.29 737.31,123.85 739.01,121.58
             740.70,119.36 746.42,118.99 749.00,119.18
             759.81,120.00 775.57,126.77 776.80,139.00
             777.59,146.83 770.07,158.14 766.15,165.00
             762.89,171.23 759.58,173.86 766.15,179.00
             766.15,179.00 763.00,188.00 763.00,188.00
             751.71,187.37 748.03,182.78 748.00,172.00
             743.98,173.60 740.46,175.24 736.00,174.80
             725.88,173.80 718.51,166.32 719.04,156.00
             719.19,153.25 719.59,151.48 720.84,149.00
             728.54,133.67 744.99,143.16 754.00,144.72
             759.92,145.75 763.99,142.06 762.60,138.09
             762.02,136.44 760.34,135.08 758.96,134.11
             752.74,129.76 745.98,130.24 739.01,132.00 Z
           M 290.00,139.00
           C 290.00,139.00 302.00,132.00 302.00,132.00
             302.00,132.00 332.00,181.00 332.00,181.00
             332.00,181.00 319.00,188.00 319.00,188.00
             319.00,188.00 290.00,139.00 290.00,139.00 Z
           M 757.00,154.00
           C 757.00,154.00 746.00,151.29 746.00,151.29
             744.09,150.78 742.00,150.11 740.00,150.32
             734.50,150.88 731.44,157.12 734.02,161.95
             737.22,167.93 746.38,168.72 751.62,162.89
             753.86,160.40 755.55,157.00 757.00,154.00 Z
           M 816.00,177.00
           C 813.70,171.19 812.05,166.90 806.00,163.94
             801.60,161.78 797.62,163.97 797.82,168.00
             797.96,170.71 801.18,174.01 802.87,176.00
             806.81,180.63 811.36,185.66 811.89,192.00
             812.86,203.50 802.98,211.17 792.00,209.82
             781.51,208.53 766.94,196.09 766.61,185.06
             766.44,179.53 775.80,179.92 777.28,181.01
             778.80,182.13 779.43,185.27 780.21,187.00
             782.25,191.50 791.12,201.66 796.26,195.57
             799.59,191.61 795.57,187.06 793.08,184.00
             788.15,177.94 782.49,171.49 784.39,163.00
             786.80,152.28 797.51,148.96 807.00,151.78
             817.28,154.84 826.02,164.26 827.00,175.00
             827.00,175.00 816.00,177.00 816.00,177.00 Z
           M 271.00,201.00
           C 277.69,202.19 282.36,202.25 287.96,197.61
             291.35,194.80 294.73,189.24 289.18,186.46
             285.75,184.73 278.35,188.79 275.00,190.14
             263.97,194.56 250.13,192.20 249.10,178.00
             248.25,166.42 259.38,155.98 270.00,153.53
             273.10,152.81 277.72,153.00 281.00,153.00
             281.00,153.00 279.00,165.00 279.00,165.00
             269.67,163.19 260.32,171.09 262.17,175.94
             264.39,181.80 271.20,178.40 275.00,176.70
             284.29,172.53 293.80,168.59 301.61,178.04
             316.00,195.48 290.10,218.99 269.00,213.00
             269.00,213.00 271.00,201.00 271.00,201.00 Z
           M 805.00,223.00
           C 808.44,215.37 815.28,209.94 820.96,204.00
             820.96,204.00 845.01,178.00 845.01,178.00
             847.15,175.81 857.09,164.85 859.04,164.34
             863.00,163.30 868.00,170.21 870.00,173.00
             870.00,173.00 840.00,206.00 840.00,206.00
             840.00,206.00 867.00,202.88 867.00,202.88
             871.48,203.93 876.09,209.04 878.00,213.00
             878.00,213.00 855.00,216.25 855.00,216.25
             855.00,216.25 846.74,218.60 846.74,218.60
             846.74,218.60 844.28,229.00 844.28,229.00
             844.28,229.00 841.00,255.00 841.00,255.00
             836.45,252.56 830.88,248.52 830.16,243.00
             830.16,243.00 833.00,214.00 833.00,214.00
             833.00,214.00 814.00,231.00 814.00,231.00
             814.00,231.00 805.00,223.00 805.00,223.00 Z
           M 213.02,168.66
           C 225.28,166.79 225.56,181.94 216.96,184.49
             211.19,186.20 205.89,181.11 206.50,176.00
             206.98,171.95 209.61,170.15 213.02,168.66 Z
           M 230.00,184.00
           C 236.18,188.42 240.78,194.51 245.97,200.00
             245.97,200.00 256.91,212.00 256.91,212.00
             258.80,214.04 267.18,223.08 267.66,225.00
             268.62,228.82 261.63,234.69 258.01,233.68
             255.46,232.96 251.82,228.06 249.91,226.00
             249.91,226.00 229.91,204.00 229.91,204.00
             227.65,201.55 221.87,196.50 222.11,193.00
             222.33,189.82 227.67,186.03 230.00,184.00 Z
           M 217.00,253.00
           C 215.02,246.73 199.49,222.48 195.00,215.00
             193.26,212.10 187.05,202.87 187.24,200.00
             187.50,196.15 193.75,190.67 197.00,189.00
             197.00,189.00 226.42,240.00 226.42,240.00
             228.73,243.97 236.41,254.73 235.30,259.00
             234.34,262.68 227.10,270.67 223.00,270.48
             220.30,270.35 204.76,263.51 201.00,262.00
             201.00,262.00 151.00,241.00 151.00,241.00
             151.00,241.00 160.00,229.00 160.00,229.00
             160.00,229.00 182.00,238.15 182.00,238.15
             182.00,238.15 217.00,253.00 217.00,253.00 Z
           M 858.00,249.00
           C 858.01,256.16 858.09,261.26 863.33,266.89
             866.59,270.41 872.62,272.10 874.22,265.96
             875.02,262.89 872.10,257.76 870.76,255.00
             867.51,248.34 864.65,239.74 869.51,233.02
             876.66,223.12 888.76,224.65 896.96,232.18
             905.09,239.65 906.99,246.45 907.00,257.00
             907.00,257.00 895.00,256.00 895.00,256.00
             895.27,249.78 894.55,245.80 889.70,241.35
             886.84,238.71 882.22,237.43 880.50,242.11
             879.47,244.91 881.55,248.52 882.76,251.00
             885.04,255.69 887.54,260.71 887.90,266.00
             888.87,280.12 873.69,287.57 862.00,281.03
             849.34,273.96 845.20,261.58 846.00,248.00
             846.00,248.00 858.00,249.00 858.00,249.00 Z
           M 50.00,527.00
           C 50.00,527.00 98.00,527.00 98.00,527.00
             98.00,527.00 115.00,528.00 115.00,528.00
             115.00,528.00 193.00,528.00 193.00,528.00
             193.00,528.00 193.00,542.00 193.00,542.00
             193.00,542.00 73.00,542.00 73.00,542.00
             73.00,542.00 58.00,541.00 58.00,541.00
             58.00,541.00 50.00,541.00 50.00,541.00
             50.00,541.00 50.00,527.00 50.00,527.00 Z
           M 875.00,527.00
           C 875.00,527.00 923.00,527.00 923.00,527.00
             923.00,527.00 940.00,528.00 940.00,528.00
             940.00,528.00 1018.00,528.00 1018.00,528.00
             1018.00,528.00 1018.00,542.00 1018.00,542.00
             1018.00,542.00 898.00,542.00 898.00,542.00
             898.00,542.00 883.00,541.00 883.00,541.00
             883.00,541.00 875.00,541.00 875.00,541.00
             875.00,541.00 875.00,527.00 875.00,527.00 Z
           M 893.00,868.00
           C 893.00,868.00 861.81,818.00 861.81,818.00
             859.45,814.20 851.05,803.02 852.21,799.00
             853.19,795.56 860.15,787.00 864.01,787.10
             864.01,787.10 885.00,794.58 885.00,794.58
             885.00,794.58 938.00,814.00 938.00,814.00
             936.07,817.04 931.35,824.29 927.91,825.30
             924.95,826.17 915.29,821.83 912.00,820.58
             912.00,820.58 871.00,805.00 871.00,805.00
             871.00,805.00 894.05,842.00 894.05,842.00
             894.05,842.00 902.18,856.00 902.18,856.00
             902.18,856.00 895.00,868.00 895.00,868.00
             895.00,868.00 893.00,868.00 893.00,868.00 Z
           M 193.00,824.00
           C 193.14,830.15 194.50,835.66 200.04,839.31
             205.12,842.65 209.33,838.79 208.30,834.00
             207.32,829.44 198.84,820.11 199.79,810.00
             200.14,806.24 201.46,803.78 204.11,801.10
             216.13,788.93 232.42,799.89 239.10,812.00
             240.96,815.39 245.00,825.98 241.26,829.01
             239.48,830.45 232.47,830.00 230.00,830.00
             229.99,823.05 229.93,817.57 224.67,812.21
             221.45,808.92 215.42,807.13 213.70,813.04
             212.79,816.18 215.84,821.18 217.25,824.00
             221.07,831.68 224.61,839.21 218.58,846.98
             211.50,856.12 201.41,855.01 193.00,848.47
             184.81,842.09 181.09,834.20 181.00,824.00
             181.00,824.00 193.00,824.00 193.00,824.00 Z
           M 247.00,823.00
           C 250.30,825.21 256.25,829.26 257.85,833.00
             258.42,834.89 258.03,838.83 257.85,841.00
             257.85,841.00 256.00,864.00 256.00,864.00
             260.83,861.61 264.16,856.98 267.72,853.00
             269.32,851.22 271.42,848.29 274.01,848.11
             278.02,847.83 284.16,853.91 282.26,858.00
             281.51,859.61 273.86,868.06 272.15,870.00
             272.15,870.00 248.42,897.00 248.42,897.00
             246.19,899.59 234.53,913.26 232.72,914.26
             228.98,916.30 221.46,909.98 222.30,906.00
             222.88,903.19 233.49,891.88 236.05,889.00
             240.90,883.54 246.08,878.17 250.00,872.00
             250.00,872.00 231.00,875.40 231.00,875.40
             228.50,875.90 224.41,877.01 222.00,876.32
             218.13,875.21 213.37,870.16 211.00,867.00
             211.00,867.00 233.00,862.92 233.00,862.92
             233.00,862.92 242.40,859.57 242.40,859.57
             242.40,859.57 244.42,850.00 244.42,850.00
             244.42,850.00 247.00,823.00 247.00,823.00 Z
           M 829.00,823.00
           C 829.00,823.00 859.00,853.00 859.00,853.00
             861.45,855.46 868.14,861.37 867.89,864.99
             867.65,868.42 861.66,872.22 859.00,874.00
             859.00,874.00 829.91,844.00 829.91,844.00
             827.73,841.66 821.20,836.10 821.20,833.00
             821.20,830.04 826.91,825.09 829.00,823.00 Z
           M 811.00,895.00
           C 816.96,894.95 821.40,894.48 825.77,889.81
             828.54,886.86 829.78,882.23 824.94,880.50
             821.95,879.43 816.83,882.20 814.00,883.42
             805.25,887.22 797.15,891.30 789.21,882.89
             781.70,874.95 783.05,864.64 790.10,857.01
             798.45,847.99 807.88,843.83 820.00,846.00
             820.00,846.00 819.00,858.00 819.00,858.00
             811.91,858.00 806.93,857.60 801.12,862.68
             797.86,865.63 795.19,871.30 801.12,873.36
             804.65,874.62 809.76,871.74 813.00,870.31
             819.62,867.38 828.50,864.85 834.91,869.65
             842.49,875.32 842.83,886.73 837.44,894.00
             830.76,903.01 821.93,906.97 811.00,907.00
             811.00,907.00 811.00,895.00 811.00,895.00 Z
           M 312.00,896.00
           C 311.01,889.70 308.43,884.87 302.96,881.29
             300.09,879.37 296.16,878.15 293.61,881.29
             290.33,885.39 295.24,890.05 297.73,893.00
             301.82,897.84 306.15,902.37 306.80,909.00
             307.68,917.92 300.85,925.49 292.00,925.96
             282.36,926.46 273.92,921.34 268.05,913.91
             265.96,911.26 262.15,905.16 266.30,902.65
             275.18,897.27 276.49,907.25 282.02,911.64
             285.01,913.71 289.65,915.92 292.30,911.64
             294.99,907.69 289.58,902.73 287.00,900.00
             283.27,896.06 279.82,892.47 278.53,887.00
             276.40,877.98 282.58,868.10 292.00,867.11
             294.84,866.81 299.26,867.00 302.00,867.79
             309.57,869.96 317.99,877.04 321.60,884.00
             322.77,886.25 324.72,890.94 322.99,893.28
             321.14,895.79 314.87,895.94 312.00,896.00 Z
           M 874.02,872.69
           C 885.67,871.50 886.83,886.08 877.96,888.57
             867.49,891.50 862.17,877.71 874.02,872.69 Z
           M 758.00,880.00
           C 760.58,878.28 766.77,873.26 769.82,874.30
             772.30,875.14 776.11,881.67 777.67,884.00
             777.67,884.00 794.05,909.00 794.05,909.00
             795.55,911.36 800.12,917.33 799.90,919.91
             799.56,923.75 792.20,926.98 789.00,928.00
             789.00,928.00 758.00,880.00 758.00,880.00 Z
           M 324.00,897.00
           C 324.92,894.71 326.31,890.35 328.41,889.04
             332.88,886.26 340.29,892.03 341.99,896.04
             342.95,898.28 342.94,900.62 343.00,903.00
             348.57,900.65 351.80,899.03 358.00,900.79
             371.27,904.56 377.69,918.93 367.61,929.79
             361.92,935.92 351.23,934.33 344.00,932.29
             340.66,931.35 335.37,929.28 332.11,931.04
             325.89,934.38 329.54,939.60 334.02,942.09
             340.92,945.92 345.83,945.07 352.99,943.00
             353.50,945.78 354.77,951.01 352.99,953.44
             351.05,956.05 344.96,956.08 342.00,955.96
             332.91,955.59 319.60,949.87 316.01,941.00
             311.96,931.03 320.38,919.46 324.74,911.00
             327.92,904.84 331.17,901.20 324.00,897.00 Z
           M 754.00,937.00
           C 754.00,937.00 744.22,918.00 744.22,918.00
             742.59,914.97 740.15,910.59 736.96,909.04
             730.02,905.67 728.27,915.82 722.02,911.51
             720.92,910.75 719.39,909.20 718.82,907.98
             717.03,904.13 721.24,900.78 724.00,898.79
             730.77,893.90 739.63,891.85 746.83,897.11
             752.25,901.07 757.38,911.87 760.69,918.00
             762.07,920.54 764.48,926.66 767.21,927.59
             769.08,928.23 772.98,926.56 775.00,926.00
             775.00,926.00 779.00,936.00 779.00,936.00
             779.00,936.00 772.00,939.00 772.00,939.00
             773.31,941.31 776.44,946.28 776.01,948.91
             775.45,952.37 768.87,956.33 766.00,958.00
             766.00,958.00 760.00,946.00 760.00,946.00
             760.00,946.00 745.00,954.00 745.00,954.00
             745.00,954.00 740.00,944.00 740.00,944.00
             740.00,944.00 754.00,937.00 754.00,937.00 Z
           M 335.00,922.00
           C 335.00,922.00 350.00,924.72 350.00,924.72
             355.88,924.70 359.61,918.81 357.59,914.02
             355.27,908.50 348.07,906.82 343.04,909.45
             340.91,910.57 339.46,912.08 338.11,914.04
             336.18,916.83 335.62,918.76 335.00,922.00 Z
           M 400.00,919.00
           C 400.00,919.00 414.00,924.00 414.00,924.00
             414.00,924.00 393.00,985.00 393.00,985.00
             393.00,985.00 414.00,992.00 414.00,992.00
             414.00,992.00 411.00,1003.00 411.00,1003.00
             411.00,1003.00 383.00,994.42 383.00,994.42
             383.00,994.42 355.00,985.00 355.00,985.00
             355.00,985.00 358.00,973.00 358.00,973.00
             358.00,973.00 380.00,980.00 380.00,980.00
             380.00,980.00 400.00,919.00 400.00,919.00 Z
           M 504.00,919.00
           C 504.00,919.00 518.00,920.00 518.00,920.00
             518.00,920.00 511.85,968.00 511.85,968.00
             511.85,968.00 508.00,1001.00 508.00,1001.00
             508.00,1001.00 494.00,999.00 494.00,999.00
             494.00,999.00 494.00,991.00 494.00,991.00
             491.82,993.06 489.75,995.12 487.00,996.43
             477.41,1001.00 463.69,996.45 458.83,987.00
             453.31,976.26 455.76,955.35 463.53,946.09
             471.69,936.37 492.01,935.65 498.00,948.00
             498.00,948.00 500.00,948.00 500.00,948.00
             500.00,948.00 504.00,919.00 504.00,919.00 Z
           M 661.00,925.00
           C 661.00,925.00 675.00,921.00 675.00,921.00
             675.00,921.00 694.00,982.00 694.00,982.00
             694.00,982.00 716.00,975.00 716.00,975.00
             716.00,975.00 719.00,987.00 719.00,987.00
             719.00,987.00 663.00,1005.00 663.00,1005.00
             663.00,1005.00 660.00,993.00 660.00,993.00
             663.52,991.83 677.41,988.34 678.80,985.58
             680.11,982.98 675.71,972.13 674.67,969.00
             674.67,969.00 661.00,925.00 661.00,925.00 Z
           M 803.00,929.69
           C 814.43,928.53 816.01,942.98 806.00,945.57
             798.90,947.40 794.59,940.55 796.74,935.04
             797.99,931.85 800.09,930.89 803.00,929.69 Z
           M 602.00,948.00
           C 604.74,935.13 624.90,930.05 633.47,940.11
             637.86,945.25 638.28,951.65 639.42,958.00
             639.42,958.00 645.00,990.00 645.00,990.00
             645.00,990.00 631.00,992.00 631.00,992.00
             631.00,992.00 624.70,956.00 624.70,956.00
             623.16,950.87 619.72,947.25 614.00,948.11
             607.90,949.02 603.64,953.96 603.11,960.00
             602.73,964.28 604.19,969.68 604.92,974.00
             604.92,974.00 609.00,996.00 609.00,996.00
             606.19,996.71 598.07,998.84 595.74,997.00
             593.76,995.45 592.40,984.88 591.92,982.00
             591.92,982.00 585.00,942.00 585.00,942.00
             587.71,941.32 595.11,939.36 597.41,941.04
             599.19,942.34 598.37,944.34 602.00,948.00 Z
           M 550.00,943.00
           C 557.25,942.04 564.14,940.62 569.58,947.11
             573.11,951.29 573.93,960.60 574.00,966.00
             574.00,966.00 577.00,1023.00 577.00,1023.00
             577.00,1023.00 563.00,1024.00 563.00,1024.00
             563.00,1024.00 560.00,966.00 560.00,966.00
             559.92,959.42 559.09,953.68 551.00,955.00
             551.00,955.00 550.00,943.00 550.00,943.00 Z
           M 528.00,944.00
           C 528.00,944.00 541.00,944.00 541.00,944.00
             541.00,944.00 541.00,1001.00 541.00,1001.00
             541.00,1001.00 527.00,1001.00 527.00,1001.00
             527.00,1001.00 527.00,959.00 527.00,959.00
             527.00,959.00 528.00,944.00 528.00,944.00 Z
           M 481.00,951.39
           C 478.59,952.18 477.29,952.51 475.39,954.39
             470.28,959.47 464.65,982.76 480.00,986.52
             482.06,986.97 484.95,987.12 487.00,986.52
             497.95,983.63 501.27,963.15 494.43,955.21
             490.78,950.97 486.15,950.71 481.00,951.39 Z
           M 530.04,1009.74
           C 533.54,1008.91 536.86,1008.69 539.69,1011.43
             543.42,1015.05 542.46,1022.32 536.98,1024.40
             527.65,1027.94 519.59,1015.83 530.04,1009.74 Z" />
</svg>
